<?xml version="1.0" encoding="UTF-8" standalone="no"?>
<!-- Created with Inkscape (http://www.inkscape.org/) -->

<svg
   xmlns:dc="http://purl.org/dc/elements/1.1/"
   xmlns:cc="http://creativecommons.org/ns#"
   xmlns:rdf="http://www.w3.org/1999/02/22-rdf-syntax-ns#"
   xmlns:svg="http://www.w3.org/2000/svg"
   xmlns="http://www.w3.org/2000/svg"
   xmlns:sodipodi="http://sodipodi.sourceforge.net/DTD/sodipodi-0.dtd"
   xmlns:inkscape="http://www.inkscape.org/namespaces/inkscape"
   version="1.1"
   id="svg15614"
   width="210mm"
   height="297mm"
   viewBox="0 0 793.7008 1122.5197"
   sodipodi:docname="uiaa.svg"
   inkscape:version="0.92.1 r15371">
  <metadata
     id="metadata15620">
    <rdf:RDF>
      <cc:Work
         rdf:about="">
        <dc:format>image/svg+xml</dc:format>
        <dc:type
           rdf:resource="http://purl.org/dc/dcmitype/StillImage" />
        <dc:title />
      </cc:Work>
    </rdf:RDF>
  </metadata>
  <defs
     id="defs15618">
    <marker
       inkscape:stockid="Arrow1Lstart"
       orient="auto"
       refY="0.0"
       refX="0.0"
       id="Arrow1Lstart"
       style="overflow:visible"
       inkscape:isstock="true">
      <path
         id="path5305"
         d="M 0.0,0.0 L 5.0,-5.0 L -12.5,0.0 L 5.0,5.0 L 0.0,0.0 z "
         style="fill-rule:evenodd;stroke:#000000;stroke-width:1pt;stroke-opacity:1;fill:#000000;fill-opacity:1"
         transform="scale(0.8) translate(12.5,0)" />
    </marker>
    <marker
       inkscape:stockid="Arrow1Mend"
       orient="auto"
       refY="0.0"
       refX="0.0"
       id="Arrow1Mend"
       style="overflow:visible;"
       inkscape:isstock="true">
      <path
         id="path5314"
         d="M 0.0,0.0 L 5.0,-5.0 L -12.5,0.0 L 5.0,5.0 L 0.0,0.0 z "
         style="fill-rule:evenodd;stroke:#ff0000;stroke-width:1pt;stroke-opacity:1;fill:#ff0000;fill-opacity:1"
         transform="scale(0.4) rotate(180) translate(10,0)" />
    </marker>
    <marker
       inkscape:stockid="Arrow1Sstart"
       orient="auto"
       refY="0.0"
       refX="0.0"
       id="Arrow1Sstart"
       style="overflow:visible"
       inkscape:isstock="true">
      <path
         id="path5317"
         d="M 0.0,0.0 L 5.0,-5.0 L -12.5,0.0 L 5.0,5.0 L 0.0,0.0 z "
         style="fill-rule:evenodd;stroke:#ff0000;stroke-width:1pt;stroke-opacity:1;fill:#ff0000;fill-opacity:1"
         transform="scale(0.2) translate(6,0)" />
    </marker>
    <inkscape:path-effect
       effect="simplify"
       id="path-effect7589-5"
       is_visible="true"
       steps="1"
       threshold="0.00526457"
       smooth_angles="360"
       helper_size="0"
       simplify_individual_paths="false"
       simplify_just_coalesce="false"
       simplifyindividualpaths="false"
       simplifyJustCoalesce="false" />
    <inkscape:path-effect
       effect="simplify"
       id="path-effect7589-5-3"
       is_visible="true"
       steps="1"
       threshold="0.00526457"
       smooth_angles="360"
       helper_size="0"
       simplify_individual_paths="false"
       simplify_just_coalesce="false"
       simplifyindividualpaths="false"
       simplifyJustCoalesce="false" />
    <inkscape:path-effect
       effect="simplify"
       id="path-effect7589-5-7"
       is_visible="true"
       steps="1"
       threshold="0.00526457"
       smooth_angles="360"
       helper_size="0"
       simplify_individual_paths="false"
       simplify_just_coalesce="false"
       simplifyindividualpaths="false"
       simplifyJustCoalesce="false" />
    <inkscape:path-effect
       effect="simplify"
       id="path-effect7589-5-35"
       is_visible="true"
       steps="1"
       threshold="0.00526457"
       smooth_angles="360"
       helper_size="0"
       simplify_individual_paths="false"
       simplify_just_coalesce="false"
       simplifyindividualpaths="false"
       simplifyJustCoalesce="false" />
    <inkscape:path-effect
       effect="simplify"
       id="path-effect7589-5-7-3"
       is_visible="true"
       steps="1"
       threshold="0.00526457"
       smooth_angles="360"
       helper_size="0"
       simplify_individual_paths="false"
       simplify_just_coalesce="false"
       simplifyindividualpaths="false"
       simplifyJustCoalesce="false" />
    <inkscape:path-effect
       effect="simplify"
       id="path-effect7589-5-7-35"
       is_visible="true"
       steps="1"
       threshold="0.00526457"
       smooth_angles="360"
       helper_size="0"
       simplify_individual_paths="false"
       simplify_just_coalesce="false"
       simplifyindividualpaths="false"
       simplifyJustCoalesce="false" />
    <inkscape:path-effect
       effect="simplify"
       id="path-effect7589-5-7-2"
       is_visible="true"
       steps="1"
       threshold="0.00526457"
       smooth_angles="360"
       helper_size="0"
       simplify_individual_paths="false"
       simplify_just_coalesce="false"
       simplifyindividualpaths="false"
       simplifyJustCoalesce="false" />
  </defs>
  <sodipodi:namedview
     pagecolor="#ffffff"
     bordercolor="#666666"
     borderopacity="1"
     objecttolerance="10"
     gridtolerance="10"
     guidetolerance="10"
     inkscape:pageopacity="0"
     inkscape:pageshadow="2"
     inkscape:window-width="1600"
     inkscape:window-height="868"
     id="namedview15616"
     showgrid="false"
     units="mm"
     inkscape:zoom="2.663657"
     inkscape:cx="254.71457"
     inkscape:cy="738.19203"
     inkscape:window-x="0"
     inkscape:window-y="32"
     inkscape:window-maximized="0"
     inkscape:current-layer="layer10" />
  <g
     inkscape:groupmode="layer"
     id="layer10"
     inkscape:label="Layer 2">
    <path
       style="fill:#000000;fill-opacity:1;stroke:none;stroke-width:1;stroke-miterlimit:4;stroke-dasharray:none;stroke-dashoffset:0;stroke-opacity:1"
       id="path15627"
       d="m 153.03928,519.99923 c 1.70901,-0.39692 3.35115,-0.99359 4.83532,-1.93223 0.90001,-0.60589 1.69344,-1.34811 2.4791,-2.09159 0.68651,-0.61738 1.22177,-1.3369 1.59133,-2.17975 0.40562,-1.1029 0.37348,-2.28446 0.32795,-3.43988 -0.0758,-1.51835 -0.37012,-3.01168 -0.67303,-4.49755 -0.27878,-1.28387 -0.60039,-2.55776 -0.87887,-3.84169 -0.22867,-0.9931 -0.28852,-2.00565 -0.26881,-3.0208 0.0393,-0.92353 0.16849,-1.83998 0.25593,-2.75969 0.10046,-1.16367 0.18513,-2.32883 0.25338,-3.49482 0.065,-1.1489 0.0524,-2.30032 0.043,-3.45047 -0.0234,-1.02648 -0.018,-2.05237 0.0348,-3.07776 0.0356,-0.84237 0.14356,-1.67541 0.35212,-2.49203 0.20491,-0.73299 0.54723,-1.41563 0.85408,-2.10906 0.28016,-0.6242 0.44157,-1.28789 0.55877,-1.95911 0.0956,-0.60387 0.11415,-1.21557 0.12421,-1.82568 -0.0104,-0.52545 0.0382,-1.04823 0.0825,-1.57098 0.0195,-0.454 0.11613,-0.88208 0.30215,-1.29607 0.1669,-0.32578 0.3763,-0.62666 0.55778,-0.94409 0.25271,-0.45442 0.49547,-0.91414 0.74969,-1.36774 0.31387,-0.54993 0.63509,-1.0957 0.96293,-1.63741 0.29531,-0.49709 0.65055,-0.9529 1.04552,-1.37379 0.42552,-0.43781 0.95879,-0.73348 1.49369,-1.01443 0.75584,-0.38419 1.53816,-0.71117 2.3238,-1.02845 1.04735,-0.40375 2.08993,-0.81936 3.13261,-1.23498 0.96432,-0.38707 1.93442,-0.75957 2.89225,-1.1626 0.65845,-0.27849 1.2789,-0.63454 1.90271,-0.98122 0.41899,-0.23525 0.82015,-0.4994 1.21581,-0.77144 0.2884,-0.20773 0.57092,-0.42353 0.85624,-0.63547 0.25368,-0.18257 0.49059,-0.3863 0.7238,-0.59392 0.29677,-0.2649 0.60382,-0.51791 0.89544,-0.78855 0.34267,-0.33598 0.67706,-0.68029 1.00391,-1.03168 0.25687,-0.26557 0.47602,-0.55733 0.63749,-0.88941 0.13115,-0.29949 0.20243,-0.61987 0.27848,-0.93648 0.0973,-0.43618 0.23284,-0.86186 0.38331,-1.28217 0.16757,-0.45619 0.33389,-0.91283 0.50226,-1.36872 0.15948,-0.45117 0.27483,-0.91611 0.41278,-1.37407 0.17542,-0.62502 0.43937,-1.2162 0.74315,-1.78792 0.42857,-0.762 1.03212,-1.39754 1.644,-2.01317 0.61699,-0.61552 1.2999,-1.15711 2.00631,-1.66519 0.58116,-0.40797 1.20867,-0.7427 1.84114,-1.06278 0.4498,-0.22404 0.90574,-0.43506 1.37142,-0.62388 0.35481,-0.14217 0.72353,-0.24327 1.0878,-0.35704 0.38921,-0.14138 0.77985,-0.27758 1.17484,-0.40199 0.66418,-0.20277 1.3407,-0.36103 2.01657,-0.51902 0.69498,-0.14941 1.38542,-0.31815 2.05477,-0.55883 0.38985,-0.1674 0.82019,-0.31652 1.12258,-0.62748 0.0738,-0.13707 0.0999,-0.29936 0.13407,-0.4514 0.0821,-0.46474 0.19447,-0.92201 0.32262,-1.37594 0.16018,-0.4898 0.26608,-0.99197 0.32603,-1.50307 0.0749,-0.64918 0.0275,-1.30269 -0.002,-1.95301 -0.0455,-0.79078 -0.0205,-1.58285 -0.002,-2.37398 0.0181,-0.85829 -0.0401,-1.7156 -0.10152,-2.57111 -0.0603,-0.94309 -0.19299,-1.87875 -0.3476,-2.81031 -0.16789,-0.93451 -0.30101,-1.87379 -0.36887,-2.82089 -0.0556,-0.92504 0.0574,-1.84763 0.18303,-2.76228 0.1227,-0.75225 0.24355,-1.505 0.37645,-2.25554 0.12439,-0.78902 0.38147,-1.54139 0.70104,-2.27019 0.35499,-0.75335 0.79513,-1.4626 1.24383,-2.16282 0.38072,-0.61752 0.82929,-1.18204 1.34576,-1.69014 0.43695,-0.41468 0.94157,-0.74513 1.45497,-1.05573 0.59766,-0.37469 1.25162,-0.61738 1.93288,-0.78606 0.82385,-0.18419 1.66854,-0.21958 2.50857,-0.2603 0.97411,-0.0506 1.94957,-0.0443 2.92425,-0.0189 0.89683,0.0259 1.79053,0.106 2.68396,0.18348 0.4393,0.028 0.89302,0.11337 1.32054,-0.0284 0.24878,-0.11406 0.43627,-0.31036 0.61222,-0.51392 0.26921,-0.34286 0.43261,-0.75314 0.61813,-1.14413 0.20976,-0.41466 0.40657,-0.83384 0.53939,-1.27968 0.13163,-0.50107 0.20245,-1.01552 0.27926,-1.52711 0.0964,-0.55011 0.12623,-1.10785 0.17052,-1.66361 0.0425,-0.64509 0.17156,-1.27925 0.32878,-1.90487 0.14387,-0.54662 0.29991,-1.08976 0.45574,-1.63304 0.14029,-0.55437 0.30931,-1.09973 0.51267,-1.63405 0.20192,-0.49893 0.44848,-0.97808 0.72797,-1.43755 0.26897,-0.41593 0.5856,-0.79786 0.91715,-1.16478 0.30749,-0.33106 0.62403,-0.65474 0.88937,-1.02138 0.28965,-0.42637 0.56881,-0.85874 0.87984,-1.27008 0.32692,-0.43273 0.72216,-0.79965 1.15719,-1.1202 0.43115,-0.30383 0.93308,-0.45157 1.44079,-0.56529 0.413,-0.0859 0.83554,-0.0959 1.25568,-0.10299 0.29112,-0.0127 0.57901,-0.0412 0.86017,-0.11885 0.10364,-0.0242 0.1353,-0.0666 0.17002,-0.15363 0.0446,-0.18027 0.0846,-0.3635 0.12037,-0.54671 0.11413,-0.6539 0.32945,-1.28227 0.55162,-1.90563 0.25412,-0.67787 0.50666,-1.35558 0.70163,-2.05315 0.18428,-0.68993 0.2589,-1.40151 0.34468,-2.1085 0.0753,-0.76562 0.25707,-1.50719 0.52537,-2.22634 0.21904,-0.51889 0.47458,-1.02158 0.7314,-1.52257 0.21994,-0.41731 0.46257,-0.82193 0.69885,-1.23003 0.24489,-0.45037 0.53839,-0.86818 0.86698,-1.26052 0.48355,-0.54418 1.09272,-0.94165 1.71449,-1.30817 0.72701,-0.39695 1.48921,-0.72426 2.25346,-1.04164 0.7653,-0.30723 1.53116,-0.61266 2.28569,-0.94569 0.59336,-0.27206 1.15525,-0.60532 1.71426,-0.94069 0.50033,-0.31689 1.01784,-0.6047 1.54582,-0.87249 0.31129,-0.15172 0.61711,-0.31386 0.91836,-0.48453 0.0577,-0.0296 0.51203,-0.31663 0.29145,-0.18734 0.19117,-0.30685 0.36299,-0.62524 0.53263,-0.94434 0.2591,-0.50188 0.53142,-0.99669 0.79832,-1.49439 0.19071,-0.34845 0.37527,-0.69926 0.5043,-1.07551 0.10188,-0.31157 0.16113,-0.63442 0.19684,-0.95966 0.042,-0.54398 0.15473,-1.0752 0.3027,-1.59912 0.16055,-0.53877 0.37613,-1.05921 0.58247,-1.58161 0.14139,-0.35091 0.23652,-0.71348 0.28439,-1.08803 0.0442,-0.3575 -5.1e-4,-0.7157 -0.0436,-1.07076 -0.0683,-0.52669 -0.10764,-1.05637 -0.12938,-1.58685 -0.0366,-0.4643 0.003,-0.92141 0.0983,-1.3758 0.1362,-0.51454 0.40627,-0.97719 0.67943,-1.42909 0.33262,-0.53616 0.78537,-0.97218 1.26927,-1.36959 0.50583,-0.43708 1.07743,-0.7705 1.68521,-1.04242 0.49065,-0.20768 1.00898,-0.33591 1.50871,-0.51814 0.32737,-0.12158 0.65091,-0.25326 0.97909,-0.37271 0.31987,-0.11618 0.65162,-0.19387 0.9719,-0.30865 0.42443,-0.1926 0.84355,-0.39667 1.26575,-0.59412 0.46972,-0.22925 0.93954,-0.46358 1.37239,-0.75797 0.21968,-0.17864 0.46777,-0.34129 0.63537,-0.57124 -0.0347,0.0173 -0.005,-0.14087 0.004,-0.21243 0.018,-0.23463 0.0251,-0.47074 0.0145,-0.70589 -0.0272,-0.28891 -0.0726,-0.57622 -0.1477,-0.85659 -0.15399,-0.52846 -0.38042,-1.03115 -0.60751,-1.53119 -0.33654,-0.70481 -0.6376,-1.42474 -0.89432,-2.16226 -0.24786,-0.7091 -0.36889,-1.44675 -0.43172,-2.19236 -0.0385,-0.62461 -0.0366,-1.25063 -0.0523,-1.87602 -0.0286,-0.65103 -0.007,-1.30189 0.0295,-1.95202 0.0446,-0.67516 0.1058,-1.34879 0.18326,-2.02093 0.0645,-0.74028 0.21846,-1.45817 0.46725,-2.15734 0.33351,-0.881 0.90346,-1.61325 1.54621,-2.28778 0.7544,-0.76936 1.67326,-1.31988 2.62767,-1.80093 0.85245,-0.41824 1.73812,-0.76258 2.61903,-1.11496 0.81275,-0.32639 1.62371,-0.65712 2.43788,-0.97995 0.69275,-0.26563 1.3698,-0.56822 2.03399,-0.89825 0.45015,-0.2227 0.8895,-0.46637 1.33991,-0.68843 0.45811,-0.22626 0.9595,-0.31141 1.46152,-0.37007 0.35707,-0.074 0.71821,-0.0984 1.08193,-0.0808 0.54991,0.0317 1.08645,0.16145 1.62074,0.28677 0.56771,0.1529 1.13977,0.27917 1.71922,0.37728 0.6735,0.11245 1.35241,0.185 2.03187,0.24943 0.71166,0.0575 1.42426,0.10266 2.13538,0.16656 0.4869,0.0532 0.97212,0.11656 1.46096,0.14948 0.34989,0.0206 0.70048,0.0196 1.05081,0.0223 0.38543,-0.001 0.77062,-0.0198 1.15599,-0.0282 0.5069,0.002 1.01367,0.0149 1.52053,0.0213 0.58467,0.006 1.16938,0.007 1.75407,0.008 0.61099,0.0128 1.22062,-0.0294 1.82886,-0.0816 0.55423,-0.0495 1.10689,-0.1203 1.6525,-0.23017 0.43255,-0.0876 0.86272,-0.18525 1.29883,-0.25368 0.31701,-0.0402 0.6306,-0.0998 0.94255,-0.16815 0.26112,-0.0451 0.50701,-0.13998 0.75052,-0.24075 0.36489,-0.1681 0.73201,-0.3303 1.10484,-0.48027 0.47026,-0.18421 0.94468,-0.35789 1.42257,-0.52126 0.52116,-0.16065 1.03837,-0.33092 1.55052,-0.51833 0.52725,-0.18453 1.02876,-0.42476 1.51373,-0.69978 0.54547,-0.30468 1.04689,-0.67505 1.524,-1.07639 0.58002,-0.49563 1.12884,-1.02626 1.68056,-1.55279 0.58038,-0.54621 1.14932,-1.10447 1.73039,-1.64994 0.43097,-0.39299 0.862,-0.78621 1.30004,-1.17134 0.22856,-0.19047 0.45251,-0.38638 0.69107,-0.56431 0.64116,-0.4147 0.0748,-0.0466 0.34121,-0.22146 0.21519,-0.12858 0.44627,-0.21307 0.68561,-0.282 0.0924,-0.0172 0.18356,-0.0403 0.27555,-0.0595 0.17403,-0.056 0.44393,-0.12028 0.52318,-0.13982 0.24469,-0.078 0.49915,-0.10645 0.75354,-0.13012 0.18686,-0.0171 0.37268,-0.0479 0.55659,-0.085 0.27103,-0.0785 0.55017,-0.1284 0.82658,-0.18511 0.40604,-0.0891 0.81432,-0.16621 1.22433,-0.23453 0.61904,-0.0939 1.22859,-0.23563 1.83354,-0.39516 0.87399,-0.22925 1.72449,-0.53364 2.56334,-0.86707 0.92381,-0.37123 1.80892,-0.82807 2.68712,-1.29477 0.86357,-0.45758 1.719,-0.92994 2.54122,-1.45868 0.73636,-0.48864 1.45069,-1.00912 2.13616,-1.56677 0.56262,-0.45727 1.06933,-0.97357 1.53723,-1.52589 0.43789,-0.56091 0.78549,-1.18479 1.15263,-1.79262 0.46928,-0.78357 1.02153,-1.51146 1.59632,-2.21952 0.56071,-0.70518 1.19327,-1.34597 1.84358,-1.96752 0.60761,-0.55487 1.19199,-1.1341 1.7962,-1.69256 0.69325,-0.62503 1.41142,-1.22151 2.12214,-1.82638 0.69122,-0.56272 1.31782,-1.19357 1.91197,-1.85612 0.59123,-0.67348 1.07393,-1.42871 1.53245,-2.19566 0.44927,-0.75707 0.84877,-1.5423 1.23975,-2.33061 0.38006,-0.76242 0.76662,-1.52118 1.11122,-2.30047 0.29672,-0.69718 0.48093,-1.4337 0.65843,-2.16808 0.17634,-0.82782 0.30864,-1.6643 0.46243,-2.49654 0.17153,-0.92353 0.42658,-1.82787 0.72389,-2.71794 0.2808,-0.82263 0.679,-1.59571 1.07338,-2.3677 0.34904,-0.68932 0.73078,-1.36119 1.13124,-2.02172 0.42998,-0.70868 0.91763,-1.37897 1.4344,-2.02619 0.54005,-0.67607 1.16609,-1.27442 1.79854,-1.86219 0.59619,-0.56284 1.25475,-1.05041 1.93289,-1.50857 0.62632,-0.43449 1.32043,-0.73935 2.04113,-0.97668 0.59082,-0.1894 1.20421,-0.25187 1.82137,-0.24421 0.61867,0.015 1.21256,0.16589 1.78781,0.38392 0.54777,0.22747 1.06475,0.51841 1.56757,0.83104 0.45753,0.29933 0.90947,0.60676 1.37462,0.89426 0.34344,0.21633 0.72727,0.35123 1.10606,0.49045 0.36866,0.14013 0.74711,0.2533 1.13424,0.32871 0.40497,0.0631 0.81575,0.0691 1.2246,0.0606 0.57053,-0.0135 1.13299,-0.11841 1.69178,-0.22579 0.6881,-0.12847 1.36794,-0.29126 2.0368,-0.49719 0.62711,-0.19003 1.21915,-0.46618 1.77785,-0.80571 0.52229,-0.33302 0.97549,-0.75845 1.41766,-1.18876 0.51736,-0.49978 0.98222,-1.04769 1.42516,-1.61324 0.53881,-0.7251 1.09329,-1.43807 1.65058,-2.149 0.63621,-0.79335 1.23813,-1.61301 1.83827,-2.43369 0.71049,-0.99592 1.42875,-1.98627 2.13873,-2.98257 0.77587,-1.083 1.48022,-2.21337 2.16451,-3.35558 0.67251,-1.12242 1.34979,-2.24197 1.98696,-3.38495 0.54753,-0.96689 1.07366,-1.94534 1.55207,-2.94833 0.41586,-0.92892 0.85572,-1.84576 1.34407,-2.73875 0.4579,-0.8201 0.94475,-1.62352 1.43442,-2.4249 0.40182,-0.65506 0.78927,-1.3188 1.19446,-1.97178 0.36194,-0.55651 0.719,-1.11614 1.08541,-1.66974 0.38633,-0.60173 0.80426,-1.17824 1.28256,-1.7099 0.65316,-0.69461 1.47915,-1.14896 2.35436,-1.49857 0.78159,-0.28293 1.60593,-0.40713 2.42755,-0.50533 0.69315,-0.0632 1.38725,-0.10994 2.07862,-0.19112 0.6792,-0.0953 1.3592,-0.17711 2.04329,-0.22676 0.71095,-0.0485 1.42203,7e-5 2.12769,0.087 0.48439,0.0617 0.96297,0.15865 1.4371,0.2741 0.45765,0.111 0.8861,0.30585 1.30045,0.52519 0.22043,0.12148 0.46248,0.19292 0.69836,0.27763 0.44209,0.15697 0.88998,0.29673 1.33795,0.43577 0.60542,0.16705 1.19528,0.3847 1.77403,0.62735 0.54073,0.2335 1.06914,0.49481 1.60024,0.74935 0.53347,0.23818 1.06507,0.48054 1.5976,0.72082 0.54207,0.23887 1.09289,0.4569 1.63992,0.68392 0.64838,0.27744 1.29746,0.55168 1.9366,0.85002 0.64668,0.30633 1.27908,0.64149 1.92574,0.94778 0.74428,0.36034 1.49187,0.71095 2.2612,1.01457 1.17355,0.45356 2.36922,0.8452 3.56472,1.23586 1.55687,0.50538 3.09242,1.07291 4.62648,1.64292 1.57383,0.59574 3.15072,1.18335 4.72951,1.7658 1.13343,0.40383 2.24822,0.85553 3.35078,1.33656 0.73256,0.29211 1.41051,0.68728 2.04554,1.15144 0.4254,0.33591 0.83452,0.69141 1.25765,1.03025 0.63191,0.5156 1.28766,0.99978 1.95609,1.46664 1.08218,0.73071 2.21107,1.3879 3.35504,2.01605 1.17646,0.65106 2.39623,1.21732 3.64753,1.70771 1.09666,0.39725 2.2003,0.77638 3.30934,1.13782 0.6775,0.21202 1.35574,0.42094 2.02703,0.65204 0.3285,0.10302 0.64338,0.24091 0.96209,0.36942 0.1941,0.0798 0.40072,0.12036 0.60297,0.17315 0.44518,0.13037 0.87856,0.29868 1.31175,0.46392 0.5702,0.20389 1.11356,0.47132 1.63843,0.77143 0.60051,0.35651 1.13211,0.80963 1.63546,1.29019 0.50027,0.4744 0.90411,1.03117 1.28369,1.60303 0.36511,0.54615 0.70183,1.11022 1.04235,1.67179 0.30486,0.51473 0.63182,1.01555 0.99209,1.49313 0.3793,0.48025 0.83128,0.89563 1.27778,1.31167 0.64474,0.59983 1.28825,1.20094 1.92148,1.81293 0.58074,0.56091 1.11205,1.16916 1.62735,1.78976 0.32627,0.40008 0.65688,0.79664 0.96653,1.20982 0.24779,0.33399 0.48328,0.67624 0.7006,1.03078 0.19803,0.35385 0.43224,0.68454 0.66895,1.01306 0.37202,0.5243 0.75612,1.03986 1.1332,1.56053 0.41452,0.58893 0.84027,1.16938 1.29442,1.72838 0.39421,0.4758 0.80948,0.93591 1.26886,1.34974 0.41042,0.35462 0.86764,0.64916 1.3069,0.96593 0.64811,0.46323 1.25222,0.98306 1.85819,1.499 0.6565,0.56334 1.32172,1.11591 1.99979,1.65308 0.63805,0.48768 1.28781,0.9601 1.93673,1.43322 0.66806,0.47412 1.32452,0.96415 1.98292,1.45149 0.59162,0.435 1.21352,0.82575 1.84685,1.19648 0.6274,0.3513 1.27445,0.66564 1.91184,0.9982 0.77965,0.39984 1.49078,0.91054 2.18835,1.43661 0.46277,0.34173 0.8906,0.72829 1.37923,1.03373 0.21971,0.13643 0.45143,0.25022 0.69835,0.32723 0.43274,0.13053 0.86015,0.27588 1.28145,0.43943 0.64194,0.26818 1.26515,0.57913 1.88776,0.88891 0.81282,0.40927 1.65573,0.75375 2.5059,1.07653 1.3844,0.50936 2.81372,0.88114 4.23978,1.25223 1.78673,0.43957 3.55865,0.93332 5.32441,1.44975 1.37988,0.40144 2.72421,0.90971 4.07264,1.4034 0.75001,0.27109 1.51134,0.5086 2.26457,0.77029 0.3761,0.11596 0.73528,0.26974 1.07195,0.47312 0.16617,0.11991 0.26455,0.19352 0.39574,0.28434 0.26391,0.20127 0.53417,0.39083 0.81696,0.56457 0.42804,0.26043 0.87109,0.49465 1.3037,0.74708 0.67029,0.39392 1.2747,0.88448 1.86351,1.38892 0.66894,0.59534 1.25876,1.26863 1.82557,1.95958 0.48976,0.59113 0.92693,1.22241 1.37648,1.84382 0.3717,0.51534 0.75549,1.02148 1.15599,1.51476 0.39869,0.49223 0.84737,0.93983 1.30312,1.3785 0.59152,0.545 1.1953,1.07639 1.78996,1.61797 0.71073,0.65428 1.43049,1.29824 2.16352,1.92741 0.82331,0.70601 1.65074,1.40718 2.46979,2.11814 0.73082,0.63284 1.45102,1.27719 2.15085,1.94415 0.70366,0.68831 1.38267,1.4011 2.07834,2.09739 0.84596,0.85022 1.72414,1.66731 2.61203,2.47333 1.07556,0.9703 2.19432,1.89094 3.31011,2.81418 1.13015,0.91122 2.25503,1.82893 3.38078,2.74556 0.84817,0.69881 1.73095,1.35293 2.6269,1.98865 0.65438,0.46227 1.31545,0.91478 1.95192,1.40164 0.6653,0.53086 1.27144,1.13051 1.87874,1.72543 0.72384,0.71349 1.42405,1.45031 2.14275,2.16893 0.77024,0.76285 1.5611,1.50454 2.36238,2.2346 0.70216,0.64361 1.41134,1.27953 2.11186,1.92491 0.67283,0.62643 1.32297,1.27657 1.96883,1.93059 0.63146,0.63199 1.25,1.27673 1.87061,1.91933 0.62131,0.65972 1.24752,1.31479 1.87154,1.97193 0.76117,0.82463 1.5415,1.63106 2.32868,2.4308 0.87702,0.90468 1.79073,1.77194 2.71494,2.62791 0.90199,0.822 1.77494,1.67474 2.65592,2.51893 0.8874,0.86164 1.80438,1.69184 2.73792,2.50301 1.0608,0.90401 2.15327,1.76979 3.23804,2.64461 1.09042,0.87414 2.14631,1.78935 3.15411,2.75743 0.76605,0.73688 1.43527,1.5624 2.087,2.39934 0.40096,0.51885 0.7937,1.04401 1.20554,1.55434 0.37003,0.43821 0.76632,0.85326 1.16377,1.26645 0.5821,0.57986 1.15496,1.16882 1.73068,1.75497 0.85339,0.88172 1.73949,1.73024 2.62679,2.57748 1.01427,0.95419 2.03193,1.9047 3.05093,2.85383 1.04243,0.97788 2.06844,1.97291 3.11295,2.9486 1.14296,1.07197 2.32548,2.10028 3.51855,3.11577 1.03357,0.86687 2.08059,1.71779 3.10262,2.5983 0.69998,0.61369 1.40282,1.22505 2.05301,1.89191 0.48865,0.50668 0.85173,1.10522 1.16661,1.72972 0.23375,0.50976 0.50773,0.9992 0.77843,1.48984 0.3415,0.59471 0.69953,1.18014 1.06961,1.75747 0.38885,0.5755 0.77886,1.15022 1.1686,1.72512 0.4454,0.68448 0.92568,1.34486 1.40277,2.00727 0.62694,0.8784 1.25302,1.75702 1.9034,2.61829 0.64043,0.83324 1.31439,1.64004 2.00221,2.43437 0.59183,0.7039 1.25062,1.34419 1.90684,1.98654 0.90288,0.88267 1.71056,1.85474 2.53843,2.80625 0.94492,1.09051 1.96203,2.11373 2.99625,3.11866 1.02012,0.97083 2.03077,1.95139 3.04052,2.93298 0.70166,0.67487 1.38117,1.37216 2.0744,2.05556 0.44848,0.44362 0.8969,0.88729 1.34424,1.33206 0.37265,0.37371 0.73722,0.75548 1.12667,1.11192 0.23006,0.20297 0.4787,0.38363 0.73241,0.55565 0.0823,0.048 0.17394,0.0724 0.26354,0.10299 0.38643,0.1195 0.75087,0.29335 1.10612,0.48447 0.4488,0.25974 0.87375,0.55706 1.31517,0.82888 0.40657,0.24254 0.82551,0.46428 1.25736,0.65826 0.32925,0.12404 0.67381,0.20703 1.0151,0.2919 0.41545,0.0979 0.83593,0.17416 1.25786,0.23805 0.58134,0.089 1.14533,0.25669 1.70268,0.44008 0.48372,0.15705 0.95159,0.35693 1.42308,0.54629 0.47724,0.19178 0.92982,0.43756 1.38161,0.68176 0.44146,0.23397 0.86153,0.50472 1.28828,0.76377 0.39182,0.23161 0.79894,0.43509 1.19317,0.66267 0.64408,0.38436 1.20832,0.88236 1.77234,1.37246 0.82173,0.7157 1.59076,1.48819 2.36186,2.25726 0.91889,0.92309 1.81832,1.8654 2.69721,2.82659 0.93075,1.00497 1.81267,2.0529 2.67333,3.118 0.919,1.1382 1.80418,2.30301 2.70739,3.45364 0.85229,1.07693 1.72115,2.14049 2.58721,3.20632 0.79295,0.96806 1.55134,1.96263 2.28051,2.97938 0.65224,0.91845 1.30007,1.84008 1.94489,2.76376 0.64294,0.93239 1.28038,1.86852 1.92646,2.79874 0.6023,0.88085 1.22705,1.7456 1.86721,2.59921 0.57212,0.77371 1.19352,1.50839 1.81767,2.24006 0.53308,0.62687 1.09897,1.22449 1.63964,1.84463 0.5296,0.63138 1.01783,1.29591 1.52681,1.94384 0.53666,0.67277 1.09361,1.32901 1.63804,1.99549 0.67903,0.83024 1.33044,1.68232 1.97289,2.54099 0.73292,1.00866 1.51088,1.98229 2.29727,2.94934 0.7607,0.93735 1.53143,1.86645 2.31145,2.78778 0.46227,0.53255 0.90841,1.07807 1.33869,1.63666 0.23631,0.27161 0.42421,0.56955 0.5782,0.89427 -0.003,-0.005 -0.2084,-0.3334 -0.0454,-0.11008 0.18913,0.26184 0.31381,0.56013 0.44654,0.85233 0.0889,0.18602 0.15292,0.38222 0.21368,0.57841 -0.0571,-0.18879 -0.19055,-0.39151 -0.33328,-0.55499 0.17676,0.17825 0.3326,0.3759 0.48823,0.57246 0.21368,0.27601 0.41003,0.56507 0.60933,0.85156 0.23554,0.32216 0.4501,0.65865 0.6676,0.99301 0.17093,0.23991 0.32797,0.48906 0.48436,0.73855 0.0637,0.093 0.1387,0.17707 0.21567,0.25919 0.19226,0.17562 0.34283,0.38624 0.47748,0.60761 0.86097,1.65854 -0.9455,0.88005 -3.55237,1.51904 0.0523,0.0815 0.0602,0.23729 0.15681,0.24456 0.9756,0.0734 1.97037,-0.17495 2.93504,-0.0119 0.21061,0.0356 -0.2977,0.312 -0.47748,0.42733 -0.45978,0.29496 -0.82198,0.288 -1.29525,0.0992 -0.43602,-0.10884 -0.79089,-0.34662 -1.04656,-0.71142 -0.26323,0.0571 -0.34391,-0.31521 -0.0807,-0.37226 v 0 c 0.0302,-0.3609 0.16739,-0.69833 0.18196,-1.06211 0.0174,-0.0645 0.17658,-0.38505 -0.008,-0.46269 -0.13535,-0.057 -0.55545,0.17983 -0.40964,0.16224 3.43534,-0.41444 2.60963,-1.41169 3.45764,-0.16904 0.83347,1.59411 -4.31376,0.55665 -3.20944,2.17238 0.12768,0.20043 0.31197,0.39002 0.0431,0.0954 -0.21736,-0.24795 -0.42251,-0.50714 -0.59898,-0.78617 -0.145,-0.2316 -0.29449,-0.45986 -0.45356,-0.68214 -0.19478,-0.29958 -0.3824,-0.60405 -0.5955,-0.89128 -0.15928,-0.22723 -0.31298,-0.45863 -0.47912,-0.68079 -0.0299,-0.0384 -0.27815,-0.33829 -0.15077,-0.19852 -0.26872,-0.2674 -0.49317,-0.57186 -0.60917,-0.93786 -0.0589,-0.17803 -0.0318,-0.12239 -0.0837,-0.2487 -0.0119,-0.0268 -0.17707,-0.3595 -0.0666,-0.19577 -0.14147,-0.19576 -0.27831,-0.39618 -0.36423,-0.62385 0.21177,0.41681 0.0937,0.13559 -0.0981,-0.0642 -0.39196,-0.51288 -0.80223,-1.01109 -1.22047,-1.50275 -0.79855,-0.94611 -1.58578,-1.90168 -2.35621,-2.87086 -0.80276,-1.00966 -1.60029,-2.02347 -2.36008,-3.06615 -0.60995,-0.81547 -1.22908,-1.62425 -1.87242,-2.41379 -0.56111,-0.68485 -1.13262,-1.36126 -1.684,-2.054 -0.46994,-0.59851 -0.92274,-1.21067 -1.40634,-1.79819 -0.55188,-0.63489 -1.13046,-1.24628 -1.66869,-1.89313 -0.66499,-0.79469 -1.32003,-1.59764 -1.93071,-2.43532 -0.6629,-0.89202 -1.31263,-1.79365 -1.94028,-2.71092 -0.64076,-0.93033 -1.27864,-1.86264 -1.91724,-2.79445 -0.63011,-0.91042 -1.26765,-1.81569 -1.90669,-2.71986 -0.68982,-0.95747 -1.40328,-1.89665 -2.15163,-2.80944 -0.87695,-1.08422 -1.76278,-2.16134 -2.62276,-3.25918 -0.88846,-1.13903 -1.75849,-2.29245 -2.66238,-3.41936 -0.81127,-1.00701 -1.64172,-1.99852 -2.52087,-2.94744 -0.84331,-0.91912 -1.70544,-1.82097 -2.58616,-2.70435 -0.71214,-0.71031 -1.41819,-1.42805 -2.17612,-2.09025 -0.38632,-0.33621 -0.76895,-0.68354 -1.20281,-0.95842 -0.41887,-0.24083 -0.85668,-0.44725 -1.26782,-0.70175 -0.37124,-0.2256 -0.73668,-0.46125 -1.11835,-0.66917 -0.33032,-0.17603 -0.65937,-0.35738 -1.00697,-0.49765 -0.40115,-0.15846 -0.79834,-0.32852 -1.20868,-0.46241 -0.36286,-0.11778 -0.72791,-0.23407 -1.10566,-0.29422 -0.53461,-0.0796 -1.06789,-0.17137 -1.59384,-0.29701 -0.56289,-0.13758 -1.12722,-0.28557 -1.66035,-0.51594 -0.57221,-0.26238 -1.12912,-0.55681 -1.66615,-0.88567 -0.38196,-0.2372 -0.75376,-0.48945 -1.13414,-0.72888 -0.19125,-0.10632 -0.38892,-0.1917 -0.60046,-0.25105 -0.40594,-0.14872 -0.7988,-0.33031 -1.14864,-0.58802 -0.37352,-0.27663 -0.73609,-0.5689 -1.07866,-0.88325 -0.40786,-0.38789 -0.79663,-0.79459 -1.19349,-1.19359 -0.45001,-0.4453 -0.89572,-0.89491 -1.34234,-1.34361 -0.67757,-0.68088 -1.34855,-1.36838 -2.04066,-2.03465 -1.00757,-0.98409 -2.01801,-1.96512 -3.03328,-2.94127 -1.10136,-1.07675 -2.19068,-2.16689 -3.19816,-3.3334 -0.76502,-0.87933 -1.51082,-1.77817 -2.34149,-2.5974 -0.72739,-0.71208 -1.45347,-1.42611 -2.11154,-2.20435 -0.73843,-0.85597 -1.46718,-1.72123 -2.15201,-2.62103 -0.66467,-0.88312 -1.30883,-1.78079 -1.94978,-2.68122 -0.49696,-0.69003 -0.99516,-1.37915 -1.46114,-2.09079 -0.40745,-0.60104 -0.81473,-1.20222 -1.2195,-1.80505 -0.41128,-0.64347 -0.80838,-1.29636 -1.18786,-1.95909 -0.29408,-0.53316 -0.58839,-1.06684 -0.84751,-1.61816 -0.14696,-0.29808 -0.30117,-0.59341 -0.53375,-0.83592 -0.57008,-0.5926 -1.20461,-1.11926 -1.81604,-1.66783 -1.02146,-0.87466 -2.06946,-1.71779 -3.0963,-2.58613 -1.23173,-1.05261 -2.45488,-2.11575 -3.6364,-3.22486 -1.04541,-0.9748 -2.07885,-1.96212 -3.11712,-2.94449 -1.02738,-0.96101 -2.0577,-1.91886 -3.0835,-2.88155 -0.91498,-0.87555 -1.83011,-1.75107 -2.71129,-2.66098 -0.58156,-0.59565 -1.16471,-1.18961 -1.75228,-1.77932 -0.47012,-0.48894 -0.9414,-0.97818 -1.37421,-1.50096 -0.42371,-0.52652 -0.83005,-1.0665 -1.24058,-1.6033 -0.54568,-0.70103 -1.10102,-1.39696 -1.74231,-2.01465 -0.9323,-0.89635 -1.91388,-1.73833 -2.92167,-2.54878 -1.11831,-0.90189 -2.24518,-1.79361 -3.33997,-2.72416 -0.97822,-0.84726 -1.93604,-1.71754 -2.86858,-2.61499 -0.86716,-0.82502 -1.72089,-1.66442 -2.61112,-2.46493 -0.97732,-0.89059 -1.95419,-1.78274 -2.89023,-2.71699 -0.79963,-0.81626 -1.5923,-1.63918 -2.37037,-2.47608 -0.61686,-0.64965 -1.23439,-1.29868 -1.85004,-1.94948 -0.61186,-0.63354 -1.22039,-1.27043 -1.84316,-1.8933 -0.60288,-0.61258 -1.20614,-1.22532 -1.83902,-1.80722 -0.69922,-0.6423 -1.40499,-1.27745 -2.10118,-1.92306 -0.83889,-0.77127 -1.66535,-1.55619 -2.47368,-2.35951 -0.70732,-0.71137 -1.40275,-1.43445 -2.11319,-2.1427 -0.50186,-0.49353 -1.00149,-0.99222 -1.54663,-1.43849 -0.59728,-0.4629 -1.22748,-0.88041 -1.84173,-1.32013 -0.96033,-0.68424 -1.90246,-1.3932 -2.80907,-2.14777 -1.13061,-0.92462 -2.26193,-1.84838 -3.39659,-2.76803 -1.15723,-0.95943 -2.31752,-1.91607 -3.43281,-2.92448 -0.93182,-0.8464 -1.85311,-1.70489 -2.74056,-2.59801 -0.67322,-0.67609 -1.33316,-1.36522 -2.00946,-2.03823 -0.65921,-0.62906 -1.33612,-1.23874 -2.02581,-1.83425 -0.81243,-0.70732 -1.63103,-1.40747 -2.44921,-2.10811 -0.75954,-0.65234 -1.50559,-1.31962 -2.23963,-2.00058 -0.6224,-0.5669 -1.256,-1.12146 -1.87015,-1.69736 -0.55528,-0.542 -1.10023,-1.09608 -1.58911,-1.69982 -0.44277,-0.54721 -0.86256,-1.11193 -1.27545,-1.68196 -0.40436,-0.56451 -0.79896,-1.13681 -1.24155,-1.67269 -0.43195,-0.53223 -0.87998,-1.05191 -1.38999,-1.51205 -0.42175,-0.36692 -0.85415,-0.72572 -1.33434,-1.01476 -0.45899,-0.27128 -0.93393,-0.51504 -1.38774,-0.79534 -0.32003,-0.20159 -0.63793,-0.40759 -0.93188,-0.64641 -0.0631,-0.0433 -0.46257,-0.31875 -0.29673,-0.21594 0.10724,0.051 -0.22257,-0.0836 -0.33686,-0.11578 -0.77578,-0.26981 -1.55991,-0.51507 -2.32939,-0.8029 -1.26584,-0.47405 -2.52947,-0.95761 -3.82816,-1.33648 -1.73446,-0.50404 -3.47666,-0.9794 -5.22856,-1.41947 -1.5491,-0.40602 -3.10001,-0.81591 -4.60776,-1.3598 -0.96143,-0.36517 -1.91541,-0.75282 -2.8331,-1.21907 -0.52503,-0.26282 -1.05152,-0.52431 -1.59035,-0.75783 -0.37067,-0.14572 -0.75287,-0.25839 -1.13183,-0.38025 -0.51867,-0.18067 -1.01838,-0.40811 -1.48222,-0.70469 -0.55785,-0.36337 -1.07385,-0.77944 -1.59767,-1.18937 -0.54124,-0.40732 -1.08446,-0.815 -1.69139,-1.12189 -0.68748,-0.35879 -1.38561,-0.6974 -2.06274,-1.07569 -0.74564,-0.43418 -1.4749,-0.8963 -2.17084,-1.40719 -0.65322,-0.48174 -1.3052,-0.96511 -1.96734,-1.43461 -0.68772,-0.50148 -1.38006,-0.99713 -2.05366,-1.51752 -0.71087,-0.5636 -1.40553,-1.14645 -2.09591,-1.7349 -0.53215,-0.4531 -1.06061,-0.91224 -1.62981,-1.31906 -0.55344,-0.39824 -1.12938,-0.76898 -1.63559,-1.22861 -0.58418,-0.5405 -1.1257,-1.12453 -1.63199,-1.73873 -0.49437,-0.61143 -0.96029,-1.24442 -1.41378,-1.8867 -0.37933,-0.52613 -0.76812,-1.04535 -1.14264,-1.57493 -0.28573,-0.40193 -0.56976,-0.80569 -0.81317,-1.23524 -0.15743,-0.26178 -0.341,-0.50627 -0.5175,-0.75528 -0.26794,-0.3649 -0.56403,-0.70795 -0.84694,-1.06116 -0.43095,-0.51999 -0.87796,-1.02723 -1.36292,-1.49798 -0.61842,-0.59804 -1.24757,-1.18474 -1.87724,-1.7709 -0.59801,-0.56016 -1.19488,-1.12688 -1.69762,-1.77676 -0.43124,-0.57505 -0.8273,-1.17436 -1.19315,-1.79326 -0.31224,-0.51745 -0.61961,-1.03818 -0.95504,-1.54116 -0.2351,-0.35118 -0.46842,-0.70554 -0.77841,-0.99719 -0.295,-0.28232 -0.60018,-0.55591 -0.94795,-0.7728 -0.35948,-0.20982 -0.73849,-0.38556 -1.12971,-0.52789 -0.31674,-0.12159 -0.63536,-0.23902 -0.95735,-0.346 -0.35265,-0.0992 -0.71413,-0.17253 -1.051,-0.32205 -0.24957,-0.10521 -0.49712,-0.21264 -0.75713,-0.29097 -0.65507,-0.22577 -1.31851,-0.42488 -1.97781,-0.63779 -1.17972,-0.39065 -2.35012,-0.80973 -3.50151,-1.27801 -1.37535,-0.56347 -2.73649,-1.16408 -4.03314,-1.89439 -1.24879,-0.6886 -2.48381,-1.40441 -3.66795,-2.20038 -0.73547,-0.50593 -1.46239,-1.02436 -2.1579,-1.58457 -0.38952,-0.30732 -0.77159,-0.62351 -1.15652,-0.93644 -0.42042,-0.31049 -0.87884,-0.55539 -1.36682,-0.74482 -1.03801,-0.45341 -2.09098,-0.87088 -3.15706,-1.25394 -1.58344,-0.58246 -3.16558,-1.16851 -4.74203,-1.76966 -1.48562,-0.55484 -2.96964,-1.11653 -4.48243,-1.59426 -1.26864,-0.41022 -2.53598,-0.82643 -3.77751,-1.31409 -0.84411,-0.33583 -1.6726,-0.70642 -2.48897,-1.10518 -0.63579,-0.30575 -1.25935,-0.63608 -1.89726,-0.93756 -0.5891,-0.27572 -1.18917,-0.52532 -1.7871,-0.78108 -0.58529,-0.2401 -1.17485,-0.47012 -1.75187,-0.72995 -0.55583,-0.25242 -1.11147,-0.50529 -1.66835,-0.75539 -0.47818,-0.22918 -0.95476,-0.46268 -1.44056,-0.67517 -0.46942,-0.19819 -0.9497,-0.37043 -1.44214,-0.50275 -0.50021,-0.15384 -1.00033,-0.30879 -1.49313,-0.48525 -0.40836,-0.14666 -0.8218,-0.28486 -1.2001,-0.5015 -0.13677,-0.0788 -0.27932,-0.14904 -0.43059,-0.1954 -0.33818,-0.082 -0.67994,-0.14887 -1.02493,-0.19526 -0.47491,-0.0579 -0.95269,-0.0957 -1.43141,-0.0642 -0.6274,0.0438 -1.2494,0.12945 -1.87252,0.21342 -0.69319,0.0837 -1.38846,0.13882 -2.08474,0.18963 -0.51597,0.0593 -1.03569,0.12696 -1.53218,0.28529 -0.34354,0.12768 -0.67,0.2899 -0.91975,0.56636 -0.35215,0.40904 -0.66367,0.84773 -0.95606,1.30151 -0.34603,0.52809 -0.68765,1.05899 -1.03163,1.5884 -0.40226,0.64647 -0.78625,1.30412 -1.18584,1.95225 -0.46116,0.74882 -0.91937,1.49981 -1.34701,2.26846 -0.45762,0.83193 -0.86107,1.69057 -1.25121,2.556 -0.51326,1.07194 -1.0693,2.12219 -1.65095,3.1586 -0.65618,1.17538 -1.34841,2.32964 -2.04207,3.4832 -0.73427,1.22752 -1.49393,2.43993 -2.32687,3.60364 -0.72234,1.01113 -1.45297,2.01633 -2.17863,3.02509 -0.62927,0.84627 -1.25696,1.694 -1.9148,2.51847 -0.55958,0.70934 -1.1115,1.42432 -1.65546,2.14571 -0.54353,0.68859 -1.11496,1.35422 -1.74329,1.9677 -0.64466,0.63316 -1.3217,1.23782 -2.09599,1.7106 -0.82135,0.48897 -1.68142,0.90541 -2.60289,1.1721 -0.79167,0.23612 -1.59222,0.4396 -2.40406,0.59461 -0.75914,0.14638 -1.52306,0.28083 -2.29775,0.3049 -0.67324,0.0177 -1.3486,6e-5 -2.01375,-0.11627 -0.58289,-0.1119 -1.15638,-0.26448 -1.71168,-0.4763 -0.61495,-0.22521 -1.2266,-0.46709 -1.78421,-0.8157 -0.46746,-0.28996 -0.92341,-0.59715 -1.38373,-0.89821 -0.30731,-0.19197 -0.62046,-0.37507 -0.95452,-0.51738 -0.16551,-0.0713 -0.33506,-0.11353 -0.51705,-0.11737 -0.19421,-0.007 -0.38672,0.009 -0.57369,0.0676 -0.39307,0.12768 -0.76999,0.29279 -1.10999,0.53189 -0.5189,0.34823 -1.01906,0.72263 -1.47564,1.15084 -0.49807,0.46039 -0.99727,0.9233 -1.42042,1.45576 -0.41815,0.51971 -0.80745,1.06181 -1.15524,1.63149 -0.35429,0.57952 -0.68757,1.17168 -0.99288,1.77859 -0.3103,0.60738 -0.62881,1.21332 -0.85637,1.85809 -0.24518,0.71948 -0.45081,1.45247 -0.59174,2.20002 -0.16631,0.89894 -0.30346,1.80361 -0.50198,2.69628 -0.2296,0.95157 -0.47935,1.90236 -0.87126,2.8024 -0.36522,0.83208 -0.77431,1.64242 -1.18555,2.45254 -0.43416,0.87802 -0.88178,1.7501 -1.38003,2.59388 -0.58432,0.97652 -1.20731,1.93198 -1.96806,2.78285 -0.70842,0.7829 -1.45904,1.52358 -2.27819,2.19169 -0.6722,0.57201 -1.35564,1.13122 -2.01232,1.72118 -0.61181,0.56442 -1.20268,1.1517 -1.83908,1.68912 -0.54774,0.46859 -1.06591,0.9642 -1.50706,1.53759 -0.47096,0.57069 -0.91418,1.16425 -1.29897,1.79719 -0.47307,0.78003 -0.92327,1.57967 -1.50674,2.28493 -0.62147,0.71515 -1.28326,1.39533 -2.0246,1.9882 -0.79728,0.63422 -1.62316,1.23185 -2.47523,1.79057 -0.91076,0.572 -1.85059,1.09452 -2.8039,1.59224 -0.99952,0.52149 -2.01158,1.02101 -3.05994,1.43809 -0.97273,0.37789 -1.96261,0.70668 -2.97098,0.97697 -0.7116,0.18587 -1.42806,0.35378 -2.15619,0.46185 -0.36554,0.0603 -0.72848,0.13269 -1.09024,0.21263 -0.29118,0.0598 -0.58252,0.11792 -0.87009,0.19376 -0.28898,0.0541 -0.57946,0.10395 -0.87268,0.12836 -0.34639,0.0341 0.083,-0.0206 -0.13972,0.017 -0.13429,0.0372 -0.2726,0.068 -0.36996,0.0936 -0.0875,0.0288 -0.77861,0.20472 -0.47856,0.11335 0.16227,-0.0691 -0.10577,0.0514 0.25129,-0.12947 0.26422,-0.17932 -0.31133,0.21188 -0.11181,0.0632 -0.10971,0.0854 -0.319,0.25703 -0.46454,0.37111 -0.41235,0.34756 -0.82744,0.69231 -1.22637,1.05531 -0.59137,0.54296 -1.16387,1.10636 -1.76433,1.63941 -0.64345,0.57062 -1.28385,1.14678 -1.95777,1.68129 -0.64865,0.47272 -1.34149,0.87347 -2.04216,1.26405 -0.64022,0.33635 -1.3049,0.60574 -1.99492,0.82325 -0.53259,0.18854 -1.0683,0.36578 -1.6095,0.52806 -0.42365,0.14195 -0.84265,0.29783 -1.25924,0.4593 -0.36577,0.14644 -0.72309,0.31063 -1.083,0.47061 -0.41694,0.17001 -0.84148,0.3226 -1.28527,0.40677 -0.372,0.0794 -0.74534,0.15179 -1.12286,0.2002 -0.39256,0.061 -0.77812,0.15983 -1.16911,0.22989 -0.65956,0.13046 -1.32549,0.22456 -1.99551,0.28217 -0.70139,0.0625 -1.4047,0.10611 -2.10932,0.0952 -0.5971,-5.6e-4 -1.19422,1.9e-4 -1.79129,-0.007 -0.46867,-0.006 -0.93723,-0.0184 -1.40592,-0.022 -0.41385,0.0104 -0.8275,0.0314 -1.24152,0.032 -0.41746,1.3e-4 -0.83509,-0.006 -1.25193,-0.0301 -0.51348,-0.0341 -1.02384,-0.0951 -1.53478,-0.15527 -0.715,-0.0648 -1.43168,-0.10877 -2.14723,-0.16692 -0.75826,-0.0707 -1.51495,-0.15787 -2.26637,-0.28326 -0.63636,-0.10826 -1.26586,-0.2433 -1.89116,-0.40385 -0.33335,-0.0722 -0.66909,-0.14433 -1.0116,-0.15007 -0.15235,0.004 -0.41006,0.0368 -0.61794,0.0744 -0.13117,0.0142 -0.26685,0.0212 -0.39283,0.0595 -0.44935,0.21889 -0.88285,0.46923 -1.33305,0.68668 -0.74724,0.36627 -1.50559,0.70883 -2.28542,1.00072 -0.81023,0.31655 -1.61516,0.64628 -2.42366,0.96721 -0.79664,0.31866 -1.60179,0.62013 -2.37423,0.99528 -0.62992,0.31298 -1.24567,0.65877 -1.75545,1.1518 -0.3375,0.33996 -0.64682,0.69949 -0.83377,1.14739 -0.17585,0.45596 -0.23956,0.93574 -0.29044,1.42023 -0.0707,0.61011 -0.1259,1.22162 -0.16716,1.83446 -0.0326,0.56162 -0.0523,1.12375 -0.0245,1.68617 0.0141,0.56576 0.0107,1.13196 0.0399,1.69723 0.0356,0.47489 0.10984,0.94336 0.26684,1.39521 0.22104,0.64543 0.49046,1.27114 0.78463,1.8866 0.30359,0.67416 0.59984,1.35446 0.79496,2.06954 0.12515,0.50727 0.2183,1.02266 0.24502,1.5455 0.0111,0.41108 0.003,0.82335 -0.0411,1.23251 -0.0877,0.63971 -0.25627,1.26125 -0.65434,1.78439 -0.40013,0.49129 -0.87061,0.9098 -1.39192,1.27104 -0.5741,0.37953 -1.17684,0.71323 -1.80146,1.00275 -0.51761,0.24045 -1.02766,0.49844 -1.55646,0.71363 -0.31706,0.11092 -0.63905,0.20426 -0.95913,0.30566 -0.3285,0.11396 -0.64955,0.2477 -0.97582,0.36765 -0.43475,0.15442 -0.87777,0.28359 -1.31045,0.44349 -0.34537,0.13939 -0.64753,0.34673 -0.93175,0.587 -0.2012,0.16003 -0.39544,0.3305 -0.54482,0.54193 -0.0976,0.1573 -0.19036,0.35013 -0.2978,0.48768 -0.024,0.0967 -0.0381,0.34363 -0.0189,0.49008 0.0192,0.44602 0.0493,0.89169 0.10814,1.33446 0.0761,0.63251 0.12748,1.27075 0.0353,1.90519 -0.0912,0.62703 -0.23852,1.24145 -0.47746,1.83017 -0.16786,0.42496 -0.34601,0.8473 -0.48203,1.28375 -0.10546,0.35971 -0.1777,0.72456 -0.20358,1.0995 -0.0719,0.55862 -0.17395,1.11417 -0.35864,1.64794 -0.19034,0.52845 -0.42664,1.03547 -0.70241,1.52512 -0.2648,0.49301 -0.5347,0.98331 -0.78979,1.48151 -0.26605,0.5022 -0.5337,1.00796 -0.87587,1.46348 -0.34878,0.39872 -0.74194,0.72239 -1.21216,0.96877 -0.34494,0.19491 -0.69445,0.38147 -1.05022,0.55598 -0.46278,0.23354 -0.91382,0.48867 -1.35198,0.76592 -0.67411,0.3982 -1.35033,0.79602 -2.06509,1.11828 -0.77642,0.34196 -1.56334,0.6582 -2.35059,0.97425 -0.6292,0.26085 -1.25703,0.52846 -1.85977,0.84679 -0.3152,0.18214 -0.63329,0.37018 -0.89417,0.62754 -0.21378,0.22542 -0.36365,0.50384 -0.51941,0.77013 -0.20881,0.36065 -0.41832,0.72091 -0.62005,1.08559 -0.2022,0.39385 -0.40044,0.79009 -0.58278,1.19357 -0.18394,0.4707 -0.28736,0.96197 -0.33817,1.46507 -0.10446,0.87407 -0.20863,1.75145 -0.44428,2.60215 -0.21817,0.76545 -0.48345,1.51412 -0.76618,2.25801 -0.16983,0.47838 -0.3471,0.95743 -0.42826,1.46077 -0.14813,0.71959 -0.35886,1.42312 -0.83025,2.00472 -0.50807,0.56748 -1.10136,1.01304 -1.85499,1.19629 -0.52228,0.12389 -1.05108,0.1951 -1.5885,0.2051 -0.21144,0.003 -0.42405,0.004 -0.63381,0.0338 -0.0801,0.0148 -0.22118,0.0688 -0.23343,0.0328 -0.17852,0.12872 -0.33732,0.27727 -0.46968,0.45535 -0.31319,0.4037 -0.5751,0.84366 -0.88368,1.25093 -0.33717,0.4345 -0.70069,0.84595 -1.08503,1.2395 -0.20339,0.21981 -0.39377,0.45124 -0.56447,0.69758 -0.1864,0.28428 -0.3294,0.59556 -0.47415,0.90233 -0.17895,0.44544 -0.31111,0.90629 -0.43797,1.369 -0.15205,0.50917 -0.30315,1.01854 -0.44572,1.53045 -0.12114,0.45267 -0.22692,0.91072 -0.26012,1.37958 -0.0564,0.62626 -0.0948,1.25506 -0.20676,1.87485 -0.10426,0.66167 -0.19925,1.32725 -0.3839,1.97257 -0.18524,0.58938 -0.42248,1.15674 -0.70858,1.70477 -0.32122,0.66799 -0.63277,1.34886 -1.13583,1.90494 -0.60348,0.64319 -1.28634,1.18527 -2.1506,1.42998 -0.77912,0.18084 -1.56096,0.21162 -2.35575,0.10903 -0.83551,-0.0741 -1.67115,-0.14968 -2.50976,-0.1797 -0.89293,-0.0335 -1.78671,-0.0566 -2.67965,-0.007 -0.64697,0.0301 -1.2976,0.0536 -1.93438,0.18221 -0.3731,0.0836 -0.72539,0.21948 -1.05016,0.42523 -0.31518,0.19181 -0.6304,0.38829 -0.90859,0.63225 -0.35761,0.33544 -0.64487,0.73098 -0.90925,1.14285 -0.37047,0.56668 -0.73561,1.13958 -1.03852,1.74589 -0.23192,0.49576 -0.41663,1.00759 -0.49843,1.55175 -0.12937,0.70985 -0.2518,1.42112 -0.37103,2.13272 -0.0991,0.71163 -0.19694,1.42946 -0.16758,2.14963 0.0493,0.8516 0.17953,1.69395 0.32074,2.53468 0.16418,1.02214 0.30334,2.04861 0.36469,3.0828 0.0666,0.95054 0.12877,1.90289 0.10664,2.85639 -0.0185,0.72206 -0.0431,1.44486 -0.003,2.16676 0.0368,0.82094 0.0824,1.64556 -0.0223,2.46396 -0.0894,0.66612 -0.22095,1.32441 -0.44472,1.95999 -0.12541,0.40726 -0.22714,0.81919 -0.30538,1.2383 -0.18629,0.73772 -0.47521,1.43275 -1.04618,1.96123 -0.62538,0.52993 -1.33335,0.92606 -2.11145,1.19084 -0.7714,0.25919 -1.55898,0.45949 -2.35546,0.62636 -0.61073,0.1401 -1.22221,0.27859 -1.82677,0.44374 -0.3999,0.11833 -0.79013,0.2645 -1.18779,0.38987 -0.28868,0.0855 -0.57877,0.16701 -0.86205,0.26951 -0.39168,0.15187 -0.77149,0.332 -1.15056,0.51267 -0.50652,0.25173 -1.00859,0.51623 -1.47849,0.83228 -0.5908,0.41045 -1.1613,0.84883 -1.68072,1.34823 -0.43161,0.41232 -0.87521,0.82595 -1.19099,1.33786 -0.22842,0.39658 -0.42124,0.81163 -0.54815,1.25271 -0.15657,0.51286 -0.2885,1.03367 -0.47625,1.53652 -0.16748,0.44169 -0.34034,0.88133 -0.50401,1.32446 -0.11735,0.32946 -0.22601,0.66222 -0.29985,1.00459 -0.12624,0.52418 -0.25652,1.0512 -0.49812,1.53674 -0.28914,0.55381 -0.64067,1.06576 -1.08084,1.5123 -0.38207,0.40133 -0.7679,0.80001 -1.18041,1.17045 -0.3117,0.27363 -0.63103,0.53807 -0.94604,0.80781 -0.29189,0.2468 -0.58534,0.49227 -0.89371,0.71845 -0.31049,0.22628 -0.61513,0.46047 -0.92782,0.68369 -0.46812,0.32159 -0.94558,0.62998 -1.44196,0.90657 -0.70914,0.3859 -1.41491,0.78187 -2.15972,1.0963 -0.97524,0.40616 -1.962,0.78312 -2.9453,1.16917 -1.04156,0.40913 -2.08316,0.8179 -3.12944,1.21479 -0.70344,0.27898 -1.41037,0.55369 -2.08581,0.8967 -0.28383,0.15034 -0.57219,0.30172 -0.81311,0.51739 -0.27495,0.28218 -0.50937,0.60102 -0.71662,0.93569 -0.32139,0.51897 -0.63933,1.04006 -0.96256,1.55789 -0.26859,0.45237 -0.5166,0.91581 -0.77461,1.37419 -0.15187,0.25522 -0.31542,0.50287 -0.46836,0.75734 -0.016,0.0425 -0.089,0.31348 -0.0816,0.42861 -0.0456,0.46104 -0.0929,0.92211 -0.0805,1.38637 -0.0146,0.74303 -0.046,1.48749 -0.16681,2.22213 -0.15939,0.87032 -0.38266,1.72763 -0.75676,2.53337 -0.25686,0.56499 -0.54443,1.12035 -0.72719,1.71527 -0.17602,0.65777 -0.24958,1.33308 -0.29195,2.01188 -0.0638,0.97663 -0.0874,1.95443 -0.0804,2.9332 -0.008,1.20442 -0.009,2.41027 -0.0968,3.6122 -0.092,1.19888 -0.20078,2.39674 -0.34585,3.59047 -0.11121,0.85538 -0.26164,1.70715 -0.31577,2.56874 -0.0347,0.84412 0.016,1.68387 0.19598,2.51209 0.25931,1.29285 0.57218,2.57386 0.84313,3.86426 0.32028,1.60431 0.63299,3.21691 0.69443,4.85639 0.0319,1.48156 -0.0117,2.98256 -0.6192,4.36247 -0.52632,1.0625 -1.2154,1.99397 -2.14589,2.74293 -0.9251,0.77838 -1.87733,1.53199 -2.95426,2.0933 -1.70659,0.84351 -3.52696,1.38747 -5.41383,1.65799 -0.81328,0.15103 -1.02688,-0.99912 -0.2136,-1.15016 z"
       inkscape:connector-curvature="0" />
    <path
       style="fill:#000000;fill-opacity:1;stroke:none;stroke-width:1;stroke-miterlimit:4;stroke-dasharray:none;stroke-dashoffset:0;stroke-opacity:1"
       id="path15629"
       d="m 270.39108,416.34724 c 0.0719,1.88789 0.20955,3.77286 0.45206,5.6466 0.17364,1.19514 0.39734,2.38186 0.56497,3.57791 0.15364,1.06138 0.22372,2.13118 0.28186,3.20114 0.0407,0.98338 0.15549,1.96131 0.26414,2.93887 0.11486,0.98972 0.14119,1.9863 0.19064,2.9806 0.0494,0.99877 0.13332,1.99522 0.20937,2.99216 0.0715,0.93928 0.0911,1.88128 0.10349,2.82285 0.0127,0.80578 0.003,1.61136 -0.0144,2.41695 -0.0129,0.66616 -0.0876,1.32847 -0.14054,1.99202 -0.0445,0.56544 -0.12844,1.12645 -0.17895,1.69128 -0.063,0.62835 -0.0521,1.2591 -0.0222,1.88873 0.0475,0.82941 0.14198,1.655 0.2189,2.48192 0.0871,0.80519 0.0828,1.61306 0.0488,2.42072 -0.0238,0.76012 -0.0886,1.5179 -0.1633,2.27444 -0.0664,0.73337 -0.13499,1.46653 -0.19481,2.20048 -0.0506,0.69156 -0.0586,1.38522 -0.066,2.07828 -0.002,0.7261 -0.0832,1.44846 -0.17541,2.16764 -0.0699,0.52529 -0.15985,1.04787 -0.21759,1.57473 -0.0261,0.23222 -0.0354,0.46431 -0.003,0.69589 0.0501,0.27818 0.0886,0.55854 0.12017,0.83941 0.0164,0.31839 0.0462,0.63397 0.0983,0.94845 0.033,0.17283 0.0856,0.34165 0.1396,0.50856 0.065,0.0369 0.13024,0.23091 0.16382,0.32825 0.0322,0.16372 0.0703,0.32277 0.12919,0.47853 0.089,0.16327 0.15421,0.33645 0.18793,0.5193 -0.0394,-0.0189 0.0511,0.14439 0.009,0.13131 -0.40334,-0.12596 -0.81533,-0.24069 -1.19099,-0.43417 -0.0784,-0.0404 -0.0265,-0.26309 0.0615,-0.25751 0.43365,0.0274 0.86074,0.1197 1.29111,0.17956 -0.0549,-0.0737 -0.12387,-0.12153 0.12368,-0.0494 0.3811,0.15744 0.74438,0.35541 1.1148,0.53646 0.65969,0.30267 1.29727,0.64568 1.92188,1.01458 0.96345,0.5822 1.8617,1.26169 2.75146,1.94884 0.98678,0.77016 1.9519,1.56777 2.90186,2.38278 0.84729,0.73797 1.66107,1.51277 2.47758,2.28426 0.90635,0.85025 1.81858,1.69425 2.73233,2.53654 0.7881,0.72621 1.58117,1.447 2.37804,2.16357 0.41194,0.3711 0.82877,0.73755 1.21234,1.1384 0.1827,0.20212 0.34551,0.4212 0.50774,0.6398 0.16019,0.21339 0.34165,0.40805 0.53076,0.59569 0.15554,0.15363 0.30656,0.31174 0.46433,0.463 0.0384,0.0199 0.0243,0.0175 -0.005,-0.004 -1.2445,0.69172 -0.77988,0.64686 -1.03209,0.13163 -0.0554,-0.093 -0.0924,-0.19497 -0.12806,-0.29665 -2.5333,-1.19759 1.70173,-0.74233 1.19858,-0.79927 0.0606,-0.014 0.13098,-0.0395 0.17938,-0.0538 0.10435,-0.0611 -0.12418,0.0752 -0.16041,0.1032 0.049,-0.0868 0.0858,-0.17887 0.1307,-0.26811 0.037,-0.0627 0.0651,-0.13019 0.0985,-0.19487 -0.21327,0.38513 0.32621,-0.30769 0.50606,-0.50623 0.17318,-0.15559 0.38732,-0.22314 0.61124,-0.26716 0.29385,-0.0347 0.59005,-0.0312 0.88471,-0.0115 0.34709,0.0309 0.69402,0.0638 1.04111,0.095 0.38638,0.0307 0.77257,0.0631 1.16033,0.066 0.48024,4.7e-4 0.95273,-0.085 1.4202,-0.18637 0.64717,-0.14044 1.26099,-0.3909 1.86214,-0.66291 0.79902,-0.38959 1.60993,-0.74918 2.44206,-1.06186 0.93483,-0.33613 1.90494,-0.55188 2.88042,-0.72917 0.74141,-0.13167 1.49321,-0.17713 2.24461,-0.1996 0.47245,-0.0121 0.94512,0.002 1.41711,-0.0246 0.50851,-0.0424 1.01431,-0.11244 1.52092,-0.17275 0.8252,-0.0945 1.65618,-0.11573 2.48584,-0.13322 0.79946,-0.0172 1.59907,-3.8e-4 2.39858,0.004 0.53181,-10e-4 1.0643,-0.0107 1.59546,-0.0388 0.28094,-0.0233 0.55761,-0.0789 0.83748,-0.11166 0.13532,-0.009 0.26867,-0.0256 0.40206,-0.0489 0.48958,-0.10033 -0.41389,1.49593 -0.44609,1.60542 -0.47083,-0.15836 0.31298,-0.035 0.40463,-0.0747 -0.10731,0.30417 -2.1007,-0.96137 -1.16204,-0.38181 -0.61055,-0.22992 -0.74508,-0.73293 -0.80931,-1.30755 -0.0385,-0.29165 -0.1062,-0.57834 -0.17189,-0.86477 -0.0944,-0.41975 -0.22539,-0.83019 -0.34912,-1.24193 -0.18349,-0.59179 -0.36222,-1.18489 -0.52916,-1.78156 -0.21423,-0.76558 -0.33149,-1.55198 -0.43426,-2.33872 -0.12651,-1.04107 -0.13782,-2.09109 -0.14996,-3.13831 0.003,-1.16746 -0.0152,-2.33419 -0.0671,-3.50048 -0.0559,-1.1014 -0.1346,-2.20151 -0.24529,-3.29874 -0.10982,-1.10692 -0.30763,-2.20178 -0.51328,-3.29404 -0.25501,-1.19975 -0.42573,-2.40873 -0.48173,-3.63363 -0.0403,-1.53093 0.24206,-3.03777 0.58237,-4.5225 0.32584,-1.34559 0.72991,-2.67038 1.15857,-3.98625 0.31412,-0.93036 0.62034,-1.8631 0.83197,-2.8227 0.11827,-0.52773 0.11145,-1.05998 0.0396,-1.59181 -0.0965,-0.57554 -0.21383,-1.14701 -0.30978,-1.72271 -0.13605,-0.77282 -0.18058,-1.55656 -0.20746,-2.33945 -0.0271,-0.70272 -0.0163,-1.40529 0.003,-2.10795 0.0246,-0.48817 -0.006,-0.97603 -0.046,-1.46237 -0.0277,-0.31701 -0.0472,-0.63461 -0.0589,-0.9526 -0.008,-0.21059 -0.007,-0.4213 -0.005,-0.63198 0.006,-0.2812 -0.0159,-0.56177 -0.0276,-0.84257 -0.0151,-0.4054 -0.0149,-0.81117 -0.0176,-1.21679 -0.006,-0.43746 -0.007,-0.87496 -0.0111,-1.31243 8.1e-4,-0.12888 -0.001,-0.2597 -0.007,-0.38753 0.0322,0.14681 -0.0141,-0.0389 -0.0287,-0.0953 -0.24714,-0.84316 1.78537,-0.55717 1.84176,0.21646 0.46174,-0.25673 -0.98147,-0.39468 -1.45343,-0.63209 -0.09,-0.0453 0.13876,-0.28912 0.20965,-0.21758 0.44745,0.4516 0.80586,0.98346 1.20879,1.47519 -0.0685,-0.18792 -0.0645,0.2191 -0.11748,0.17355 -1.4547,-1.25054 -2.26461,-2.30162 0.10854,-0.16973 -0.0792,-0.22096 -0.0557,0.20948 -0.10643,0.16713 -3.92165,-3.276 0.34462,-0.26792 -0.61543,0.15576 0.3296,-0.13811 -0.50477,0.33601 -0.70028,0.41992 -0.46827,0.18653 -0.95309,0.32813 -1.43686,0.46819 -0.72566,0.19192 -1.46553,0.32505 -2.20322,0.46136 -1.05138,0.1977 -2.09583,0.43016 -3.13551,0.68173 -1.14732,0.28755 -2.28252,0.61991 -3.4294,0.90922 -1.04277,0.26598 -2.11101,0.39888 -3.1772,0.52821 -0.7926,0.0794 -1.5723,0.22064 -2.32977,0.46703 -0.6037,0.20766 -1.13932,0.55748 -1.67319,0.89921 -0.56107,0.38368 -1.14533,0.72388 -1.76492,1.00295 -0.64817,0.25671 -1.32373,0.43271 -1.99757,0.60679 -0.58179,0.14235 -1.14266,0.35375 -1.70255,0.56351 -0.46299,0.18944 -0.92602,0.37381 -1.41104,0.49843 -0.56556,0.13559 -1.12844,0.049 -1.68287,-0.0874 -0.40637,-0.10689 -0.78909,-0.28418 -1.19042,-0.40654 -0.29831,-0.0856 -0.59872,-0.16271 -0.89458,-0.25663 -0.52241,-0.16675 -0.99077,-0.45025 -1.44322,-0.75351 -0.6415,-0.44776 -1.23677,-0.95382 -1.81895,-1.47492 -0.84386,-0.75584 -1.52732,-1.66067 -2.1749,-2.58393 -0.6435,-0.95942 -1.21734,-1.96259 -1.86022,-2.9223 -0.39672,-0.57632 -0.84543,-1.11367 -1.37856,-1.56754 -0.40358,-0.2916 -0.83701,-0.53635 -1.2418,-0.82671 -0.54531,-0.41548 -0.96451,-0.96253 -1.37194,-1.50711 -0.37792,-0.53429 -0.73394,-1.08152 -1.15562,-1.58293 -0.36088,-0.43683 -0.83248,-0.74754 -1.28873,-1.0732 -0.48059,-0.32653 -0.9639,-0.64912 -1.4489,-0.96909 -0.22288,-0.14106 -0.44468,-0.28542 -0.67653,-0.41122 0.0447,0.0444 -0.13612,-0.0485 -0.2093,-0.0773 -1.51849,-1.19859 0.95775,0.59784 -0.0848,-0.4101 0.18477,-0.20499 0.36955,-0.40998 0.55432,-0.61496 0.0848,0.002 0.0817,0.12218 -0.003,0.11996 v 0 c -0.0853,-0.21207 -0.17061,-0.42413 -0.25591,-0.63619 -0.54187,-0.80152 1.72328,0.52231 0.61885,-0.14057 -0.30562,-0.097 0.16239,0.043 0.25385,0.10585 0.28335,0.1538 0.55109,0.33518 0.82579,0.50357 0.507,0.33026 1.00929,0.66774 1.51007,1.00734 0.58691,0.41696 1.17837,0.83362 1.64039,1.39454 0.4418,0.53026 0.82996,1.09749 1.22035,1.66605 0.29237,0.3942 0.58681,0.7973 0.96842,1.111 0.4423,0.32507 0.93524,0.57406 1.36239,0.9209 0.65973,0.56857 1.23125,1.22422 1.71765,1.94776 0.6328,0.94979 1.20829,1.93563 1.83874,2.887 0.56385,0.80652 1.15479,1.60146 1.89143,2.26114 0.51836,0.4644 1.0451,0.91879 1.61511,1.31977 0.30354,0.20672 0.61546,0.40398 0.96619,0.52134 0.29316,0.0948 0.59351,0.16397 0.88797,0.25454 0.36442,0.11774 0.72,0.26048 1.08476,0.37654 0.2517,0.0661 0.50781,0.13269 0.76936,0.0864 0.41654,-0.099 0.80417,-0.28338 1.20448,-0.43156 0.62039,-0.2359 1.24463,-0.46282 1.88973,-0.62315 0.5739,-0.15224 1.15073,-0.29956 1.70749,-0.50797 0.53701,-0.23656 1.03336,-0.54457 1.52097,-0.86995 0.67036,-0.4267 1.34843,-0.85101 2.10866,-1.10156 0.87122,-0.27735 1.76415,-0.45011 2.67462,-0.53992 0.98777,-0.12283 1.97825,-0.24325 2.94536,-0.487 1.15276,-0.2936 2.29543,-0.6249 3.45007,-0.91132 1.07281,-0.25918 2.15031,-0.49958 3.23509,-0.7037 0.67801,-0.12515 1.35714,-0.25028 2.02528,-0.42169 0.41106,-0.11748 0.82261,-0.23648 1.22331,-0.3861 0.25724,-0.1083 0.40818,-0.2523 0.68456,-0.41393 0.94617,-0.40969 2.03424,1.44258 1.52712,1.28544 -1.92354,-0.59603 -2.05334,-0.23896 -1.62503,-0.904 2.97955,1.30383 1.50581,0.89626 -0.0836,0.1267 -0.0568,-0.0275 0.34797,-0.18221 0.10493,-0.15752 4.32119,2.78495 0.91656,1.29898 1.62103,0.89757 0.0304,-0.0173 -0.0341,0.0816 -0.069,0.0792 -1.55786,-0.10891 -1.75429,0.34977 -1.81006,-0.4595 -0.0435,-0.88569 1.98652,0.13277 1.79866,-0.63417 -0.0588,-0.20915 0.0107,0.0238 0.0203,0.0984 0.0374,0.22936 0.0409,0.46033 0.0338,0.69233 -0.004,0.43506 -0.006,0.87014 -0.009,1.30522 2.4e-4,0.383 0.002,0.76608 0.0168,1.14885 0.0127,0.3059 0.0317,0.61175 0.0255,0.91807 10e-4,0.19071 10e-4,0.38144 0.004,0.57213 0.008,0.28921 0.0293,0.57781 0.0546,0.866 0.0448,0.54939 0.0747,1.1003 0.0492,1.65167 -0.0147,0.66659 -0.0241,1.33344 4.7e-4,1.99998 0.0265,0.705 0.0638,1.41132 0.18616,2.10741 0.0996,0.59129 0.22166,1.1783 0.32143,1.76955 0.10689,0.74349 0.1119,1.49212 -0.0425,2.23129 -0.22259,1.01853 -0.5437,2.00883 -0.8747,2.99675 -0.4107,1.26513 -0.80018,2.53798 -1.11409,3.8311 -0.30504,1.32301 -0.56515,2.66504 -0.53055,4.03002 0.0518,1.13679 0.22467,2.25614 0.47153,3.36714 0.22447,1.1442 0.4367,2.29188 0.55951,3.4523 0.11827,1.1319 0.20536,2.26669 0.26701,3.40312 0.057,1.18637 0.0817,2.37333 0.0814,3.56109 0.0162,0.97373 0.0316,1.94968 0.14075,2.9184 0.0904,0.69631 0.19151,1.39322 0.37969,2.0711 0.16326,0.58408 0.3384,1.1646 0.51748,1.74401 0.13666,0.45032 0.27672,0.90016 0.38057,1.35951 0.0862,0.36267 0.16689,0.72716 0.20622,1.09846 0.0546,0.53598 -0.14744,-0.29761 -0.53485,-0.31017 0.52357,0.25214 1.72635,1.11319 -0.26825,0.56067 0.43409,-0.20059 0.9023,-0.18842 1.30917,0.0519 0.0375,1.85635 0.63049,1.75715 -0.10019,1.89085 -0.16165,0.0216 -0.32354,0.0413 -0.48665,0.0476 -0.32148,0.0322 -0.64084,0.0869 -0.9643,0.097 -0.5652,0.0177 -1.13117,0.0203 -1.69645,0.005 -0.78031,-0.0188 -1.56087,-0.0432 -2.34147,-0.0353 -0.77187,0.0109 -1.54507,0.0242 -2.31329,0.10688 -0.54543,0.0637 -1.0897,0.14114 -1.63754,0.18107 -0.48544,0.0221 -0.97112,0.009 -1.45687,0.0202 -0.67125,0.0163 -1.34275,0.0516 -2.00763,0.15077 -0.88154,0.13673 -1.75839,0.30965 -2.60728,0.58946 -0.80262,0.27737 -1.57552,0.62058 -2.34032,0.98914 -0.70655,0.31458 -1.42961,0.5985 -2.18776,0.76307 -0.58374,0.12184 -1.17385,0.2255 -1.77259,0.21981 -0.43055,-0.007 -0.85967,-0.0357 -1.28851,-0.0742 -0.33914,-0.032 -0.67763,-0.07 -1.01646,-0.10471 -0.16917,-0.016 -0.33846,-0.021 -0.50827,-0.0116 0.22719,-0.10035 0.10071,-0.0729 -0.0407,0.0499 -0.40426,0.24532 0.35191,-0.69421 0.0473,-0.15253 -0.0579,0.0976 -0.11275,0.16256 -0.15347,0.22755 -0.0832,0.14694 -0.15265,0.3034 -0.2573,0.43795 -0.15886,0.20264 -0.3456,0.3626 -0.60147,0.42689 -0.11744,0.0318 -0.23305,0.0499 -0.35187,0.0694 -0.74313,0.0954 -0.94087,-0.0332 -0.12243,-0.93484 -0.006,-1.9e-4 -0.054,-0.0737 -0.0198,-6.4e-4 0.36033,0.76794 0.20085,0.92215 -0.62964,1.66883 -0.14048,-0.0647 -0.27535,-0.13942 -0.39164,-0.24341 -0.17808,-0.16303 -0.33899,-0.34366 -0.51576,-0.5082 -0.22778,-0.23344 -0.45008,-0.47257 -0.64652,-0.73348 -0.13249,-0.17637 -0.26168,-0.35593 -0.40606,-0.5228 -0.35966,-0.37927 -0.76314,-0.71374 -1.14653,-1.06818 -0.79647,-0.72365 -1.59407,-1.44606 -2.38543,-2.17529 -0.91649,-0.84678 -1.83344,-1.69313 -2.74292,-2.54742 -0.80169,-0.75749 -1.60899,-1.5091 -2.4385,-2.23623 -0.93171,-0.80168 -1.88438,-1.57869 -2.85298,-2.33539 -0.84686,-0.65428 -1.70221,-1.30122 -2.62115,-1.85254 -0.594,-0.35154 -1.20339,-0.6719 -1.82998,-0.96182 -0.32681,-0.15863 -0.65186,-0.32041 -0.97044,-0.49511 -0.36262,-0.14781 -0.69768,-0.2876 -0.8581,-0.68485 1.98969,-0.56636 0.86648,-0.10219 -0.24405,0.0488 -0.0192,-0.0842 -0.0352,-0.1723 -0.0793,-0.24654 -0.0643,-0.17802 -0.12822,-0.36028 -0.15323,-0.548 -0.0496,-0.10536 -0.11406,-0.22593 -0.15069,-0.34285 -0.0583,-0.22229 -0.11022,-0.44708 -0.1525,-0.67291 -0.0501,-0.33397 -0.0852,-0.66869 -0.10145,-1.00613 -0.0289,-0.28671 -0.0719,-0.57162 -0.10871,-0.85738 -0.0209,-0.31569 0.004,-0.62812 0.0565,-0.94017 0.0748,-0.52528 0.16125,-1.04882 0.23524,-1.57423 0.087,-0.67693 0.16525,-1.35683 0.16666,-2.04032 0.006,-0.7182 0.0182,-1.43678 0.0738,-2.15319 0.0574,-0.74073 0.13038,-1.48004 0.198,-2.21988 0.0715,-0.73764 0.13458,-1.47622 0.16217,-2.21701 0.0352,-0.76002 0.0481,-1.52029 -0.0339,-2.27847 -0.0725,-0.8422 -0.16118,-1.6832 -0.21099,-2.52722 -0.0318,-0.67995 -0.0348,-1.36062 0.0281,-2.03924 0.0578,-0.55944 0.14205,-1.11599 0.18137,-1.67738 0.0559,-0.64189 0.13382,-1.28262 0.14229,-1.92771 0.0174,-0.79401 0.0295,-1.58796 0.0157,-2.38219 -0.009,-0.9199 -0.0251,-1.84014 -0.0912,-2.75806 -0.0738,-1.00757 -0.16525,-2.0142 -0.20172,-3.02414 -0.0372,-0.9733 -0.0554,-1.94849 -0.16161,-2.9176 -0.1063,-0.99761 -0.22461,-1.99526 -0.25564,-2.9989 -0.0448,-1.04288 -0.10078,-2.08536 -0.24937,-3.11978 -0.15856,-1.20324 -0.36565,-2.39955 -0.50056,-3.60591 -0.18961,-1.90425 -0.28049,-3.81644 -0.30744,-5.72985 -0.0126,-0.52351 0.72771,-0.54139 0.74035,-0.0179 z"
       inkscape:connector-curvature="0" />
    <path
       style="fill:#000000;fill-opacity:1;stroke:none;stroke-width:1;stroke-miterlimit:4;stroke-dasharray:none;stroke-dashoffset:0;stroke-opacity:1"
       id="path15631"
       d="m 287.61772,434.12187 c 0.49803,1.97132 0.97077,3.94923 1.36382,5.94431 0.24565,1.1907 0.36159,2.39989 0.41272,3.61274 0.0428,0.93595 0.0136,1.87193 -0.0461,2.80623 -0.0596,0.86099 -0.1502,1.71943 -0.23783,2.57791 -0.0846,0.88894 -0.1788,1.77628 -0.31096,2.65948 -0.13796,0.82612 -0.24994,1.65605 -0.354,2.48701 -0.10213,0.80566 -0.12278,1.61804 -0.1384,2.42901 -0.008,0.76741 -0.0674,1.53276 -0.12996,2.29724 -0.053,0.61123 -0.0884,1.22364 -0.0732,1.83715 0.018,0.50205 0.10047,0.99827 0.18337,1.49277 0.0819,0.49756 0.1837,0.99156 0.26473,1.48922 0.0658,0.44898 0.1359,0.89755 0.18951,1.3482 0.033,0.38896 0.0831,0.77609 0.11675,1.16498 0.0249,0.32611 0.0952,0.64595 0.16255,0.96523 0.10147,0.48494 0.18771,0.97255 0.25122,1.46388 0.041,0.50699 0.10546,1.01124 0.16839,1.51579 0.0548,0.4305 0.0658,0.86461 0.12423,1.29462 0.0734,0.39891 0.11232,0.80208 0.13528,1.20664 0.0353,0.41806 0.0521,0.83709 0.0627,1.25638 0.0291,0.44418 -0.0266,0.88476 -0.0829,1.32411 -0.0623,0.39184 -0.11439,0.78411 -0.13978,1.18011 -0.007,0.40167 -0.0525,0.79971 -0.13678,1.19219 -0.0906,0.423 -0.3216,0.71396 -0.72286,0.86749 -0.49264,0.0582 -0.73454,-0.29126 -0.83789,-0.71986 -0.0475,-0.0703 0.0519,-0.13748 0.0994,-0.0672 v 0 c 0.16836,0.0893 0.48888,0.0978 0.24154,-0.11677 -0.11951,-0.052 -0.0527,-0.0807 -0.0234,-0.2277 0.0702,-0.33612 0.10046,-0.67772 0.1139,-1.02064 0.0339,-0.42069 0.0922,-0.8376 0.16427,-1.25344 0.0522,-0.37511 0.10577,-0.75126 0.0883,-1.13136 -0.007,-0.40595 -0.0212,-0.8118 -0.0466,-1.21707 -0.0193,-0.37507 -0.0568,-0.74821 -0.12282,-1.11825 -0.0526,-0.43214 -0.0737,-0.86649 -0.12037,-1.29919 -0.0629,-0.50478 -0.12281,-1.00971 -0.1619,-1.51704 -0.0547,-0.46088 -0.14167,-0.91629 -0.23375,-1.37105 -0.073,-0.36707 -0.14679,-0.73495 -0.16986,-1.10937 -0.029,-0.37579 -0.0808,-0.74913 -0.10983,-1.12494 -0.0493,-0.43264 -0.11771,-0.86315 -0.1826,-1.29364 -0.0819,-0.49663 -0.18072,-0.99029 -0.26431,-1.48665 -0.0905,-0.54996 -0.17733,-1.10197 -0.1991,-1.65981 -0.0145,-0.65547 0.0219,-1.30992 0.0784,-1.96296 0.0622,-0.7398 0.12254,-1.48028 0.13346,-2.223 0.0181,-0.85192 0.0506,-1.70445 0.1524,-2.55115 0.10538,-0.84096 0.228,-1.67954 0.36177,-2.51646 0.13275,-0.8646 0.22408,-1.7339 0.31056,-2.60422 0.089,-0.84346 0.18287,-1.68658 0.2516,-2.532 0.059,-0.89476 0.0854,-1.79091 0.0526,-2.68754 -0.0412,-1.1562 -0.14094,-2.30939 -0.36627,-3.44608 -0.37519,-1.97996 -0.8239,-3.94458 -1.28569,-5.90596 -0.17633,-0.71672 0.83727,-0.9661 1.01361,-0.24938 z"
       inkscape:connector-curvature="0" />
    <path
       style="fill:none;stroke:#000000;stroke-width:1px;stroke-linecap:butt;stroke-linejoin:miter;stroke-opacity:1"
       d="m 254.65494,408.49086 -4.58723,7.46858 -6.38708,-7.62626 3.2015,63.26713 3.71651,5.57475 4.5129,-6.10568 z"
       id="path16176"
       inkscape:connector-curvature="0" />
    <path
       style="fill:none;stroke:#000000;stroke-width:1px;stroke-linecap:butt;stroke-linejoin:miter;stroke-opacity:1"
       d="m 250.06771,415.95944 0.53093,61.21562"
       id="path16178"
       inkscape:connector-curvature="0" />
    <path
       style="fill:none;stroke:#000000;stroke-width:1px;stroke-linecap:butt;stroke-linejoin:miter;stroke-opacity:1"
       d="m 260.42083,470.53845 -9.0258,10.88405 33.97948,14.86602 7.69848,-9.55673"
       id="path16180"
       inkscape:connector-curvature="0" />
    <path
       style="fill:none;stroke:#000000;stroke-width:1px;stroke-linecap:butt;stroke-linejoin:miter;stroke-opacity:1"
       d="M 293.07299,486.73179 260.42083,470.53845"
       id="path16182"
       inkscape:connector-curvature="0" />
    <path
       style="fill:none;stroke:#000000;stroke-width:1px;stroke-linecap:butt;stroke-linejoin:miter;stroke-opacity:1"
       d="m 251.39503,376.56396 12.47684,10.08765 53.3584,-10.61858 -18.84799,-10.35312 z"
       id="path16184"
       inkscape:connector-curvature="0" />
    <path
       style="fill:none;stroke:#000000;stroke-width:1px;stroke-linecap:butt;stroke-linejoin:miter;stroke-opacity:1"
       d="m 242.90016,403.11042 10.35313,-21.23717 7.69847,5.84022 -6.37115,18.0516 z"
       id="path16186"
       inkscape:connector-curvature="0" />
    <path
       style="fill:none;stroke:#000000;stroke-width:1px;stroke-linecap:butt;stroke-linejoin:miter;stroke-opacity:1"
       d="m 331.56536,335.15147 -28.40472,7.69848 -5.57476,17.78613 29.73205,-7.43301 z"
       id="path16188"
       inkscape:connector-curvature="0" />
    <path
       style="fill:none;stroke:#000000;stroke-width:1px;stroke-linecap:butt;stroke-linejoin:miter;stroke-opacity:1"
       d="m 334.22001,333.02775 1.85825,10.61859 31.32483,-9.55673 -3.18558,-7.96394 z"
       id="path16190"
       inkscape:connector-curvature="0" />
    <path
       style="fill:none;stroke:#000000;stroke-width:1px;stroke-linecap:butt;stroke-linejoin:miter;stroke-opacity:1"
       d="m 364.74844,322.9401 -10.88405,1.32732 10.35312,-24.42275 9.8222,-0.53093 z"
       id="path16192"
       inkscape:connector-curvature="0" />
    <path
       style="fill:none;stroke:#000000;stroke-width:1px;stroke-linecap:butt;stroke-linejoin:miter;stroke-opacity:1"
       d="m 363.15566,296.65909 11.14951,0.7964"
       id="path16196"
       inkscape:connector-curvature="0" />
    <path
       style="fill:none;stroke:#000000;stroke-width:1px;stroke-linecap:butt;stroke-linejoin:miter;stroke-opacity:1"
       d="m 374.30517,297.45549 23.62636,-12.47684 -10.61859,-2.38918 -24.15728,14.06962"
       id="path16198"
       inkscape:connector-curvature="0" />
    <path
       style="fill:none;stroke:#000000;stroke-width:1px;stroke-linecap:butt;stroke-linejoin:miter;stroke-opacity:1"
       d="m 397.4006,280.73122 -11.68045,-1.85826 12.21138,-22.03356 8.76033,4.24743 z"
       id="path16200"
       inkscape:connector-curvature="0" />
    <path
       id="path7587-5-6"
       style="fill:none;stroke:#000000;stroke-width:0.89219266;stroke-linecap:butt;stroke-linejoin:miter;stroke-miterlimit:4;stroke-dasharray:none;stroke-opacity:1"
       inkscape:path-effect="#path-effect7589-5-7-3"
       inkscape:original-d="m 402.66157,284.94412 h 9.7078 m 0,0 a 4.8538991,4.8582551 0 0 1 -4.8539,4.85824 4.8538991,4.8582551 0 0 1 -4.8539,-4.85824 4.8538991,4.8582551 0 0 1 4.8539,-4.85826 4.8538991,4.8582551 0 0 1 4.8539,4.85826 z"
       d="m 402.66157,284.94412 c 3.23593,0 6.47187,0 9.7078,0 m 0,0 c 0.0934,2.87056 -2.74066,5.15116 -5.5931,4.80226 -2.84506,-0.348 -4.66276,-3.48494 -3.89648,-6.24696 0.76459,-2.75591 4.15053,-4.15488 6.74005,-2.93448 1.65584,0.78037 2.77075,2.5465 2.74953,4.37918 z"
       inkscape:connector-curvature="0" />
    <text
       xml:space="preserve"
       style="font-style:normal;font-weight:normal;font-size:10.66666698px;line-height:1.25;font-family:sans-serif;letter-spacing:0px;word-spacing:0px;fill:#000000;fill-opacity:1;stroke:none"
       x="415.79636"
       y="288.90768"
       id="text4702-7"><tspan
         sodipodi:role="line"
         id="tspan4700-5"
         x="415.79636"
         y="288.90768">R6</tspan></text>
    <path
       id="path7587-5-62"
       style="fill:none;stroke:#000000;stroke-width:0.89219266;stroke-linecap:butt;stroke-linejoin:miter;stroke-miterlimit:4;stroke-dasharray:none;stroke-opacity:1"
       inkscape:path-effect="#path-effect7589-5-7-35"
       inkscape:original-d="m 380.51156,302.96445 h 9.7078 m 0,0 a 4.8538991,4.8582551 0 0 1 -4.8539,4.85824 4.8538991,4.8582551 0 0 1 -4.8539,-4.85824 4.8538991,4.8582551 0 0 1 4.8539,-4.85826 4.8538991,4.8582551 0 0 1 4.8539,4.85826 z"
       d="m 380.51156,302.96445 c 3.23593,0 6.47187,0 9.7078,0 m 0,0 c 0.0934,2.87056 -2.74066,5.15116 -5.5931,4.80226 -2.84506,-0.348 -4.66276,-3.48494 -3.89648,-6.24696 0.76459,-2.75591 4.15053,-4.15488 6.74005,-2.93448 1.65584,0.78037 2.77075,2.5465 2.74953,4.37918 z"
       inkscape:connector-curvature="0" />
    <text
       xml:space="preserve"
       style="font-style:normal;font-weight:normal;font-size:10.66666698px;line-height:1.25;font-family:sans-serif;letter-spacing:0px;word-spacing:0px;fill:#000000;fill-opacity:1;stroke:none"
       x="393.64636"
       y="306.92801"
       id="text4702-9"><tspan
         sodipodi:role="line"
         id="tspan4700-1"
         x="393.64636"
         y="306.92801">R5</tspan></text>
    <path
       id="path7587-5-7"
       style="fill:none;stroke:#000000;stroke-width:0.89219266;stroke-linecap:butt;stroke-linejoin:miter;stroke-miterlimit:4;stroke-dasharray:none;stroke-opacity:1"
       inkscape:path-effect="#path-effect7589-5-7-2"
       inkscape:original-d="m 372.62767,332.99835 h 9.7078 m 0,0 a 4.8538991,4.8582551 0 0 1 -4.8539,4.85824 4.8538991,4.8582551 0 0 1 -4.8539,-4.85824 4.8538991,4.8582551 0 0 1 4.8539,-4.85826 4.8538991,4.8582551 0 0 1 4.8539,4.85826 z"
       d="m 372.62767,332.99835 c 3.23593,0 6.47187,0 9.7078,0 m 0,0 c 0.0934,2.87056 -2.74066,5.15116 -5.5931,4.80226 -2.84506,-0.348 -4.66276,-3.48494 -3.89648,-6.24696 0.76459,-2.75591 4.15053,-4.15488 6.74005,-2.93448 1.65584,0.78037 2.77075,2.5465 2.74953,4.37918 z"
       inkscape:connector-curvature="0" />
    <text
       xml:space="preserve"
       style="font-style:normal;font-weight:normal;font-size:10.66666698px;line-height:1.25;font-family:sans-serif;letter-spacing:0px;word-spacing:0px;fill:#000000;fill-opacity:1;stroke:none"
       x="385.76245"
       y="336.96194"
       id="text4702-0"><tspan
         sodipodi:role="line"
         id="tspan4700-9"
         x="385.76245"
         y="336.96194">R4</tspan></text>
  </g>
  <path
     style="fill:none;stroke:#ff0000;stroke-width:1px;stroke-linecap:butt;stroke-linejoin:miter;stroke-opacity:1;marker-mid:url(#Arrow1Mend)"
     d="m 370.43059,523.7496 c -52.60733,-30.98909 -114.258,-11.47493 -122.97379,-82.07288 -1.26553,-10.2508 -1.81238,-35.97003 4.66275,-46.07124 12.36291,-19.28614 9.6571,-8.06198 24.50767,-20.0206 9.60555,-7.735 34.33396,-23.87836 45.97438,-29.73281 14.1466,-7.1149 27.81156,-7.66177 40.16284,-17.1899 12.47826,-9.62608 21.9022,-61.58169 43.92742,-67.57534"
     id="path16202"
     inkscape:connector-curvature="0"
     sodipodi:nodetypes="csssssc" />
  <path
     style="fill:none;stroke:#000000;stroke-width:1;stroke-linecap:butt;stroke-linejoin:miter;stroke-opacity:1;stroke-miterlimit:4;stroke-dasharray:1, 2;stroke-dashoffset:0;marker-start:url(#Arrow1Lstart)"
     d="m 299.21271,453.51458 49.93135,-22.52542"
     id="path16784"
     inkscape:connector-curvature="0" />
  <text
     xml:space="preserve"
     style="font-style:normal;font-weight:normal;font-size:13.33333302px;line-height:1.25;font-family:sans-serif;letter-spacing:0px;word-spacing:0px;fill:#000000;fill-opacity:1;stroke:none"
     x="354.39999"
     y="430.61374"
     id="text16820"><tspan
       sodipodi:role="line"
       id="tspan16818"
       x="354.39999"
       y="430.61374"
       style="font-size:10.66666698px"> &quot;&quot;,</tspan><tspan
       sodipodi:role="line"
       x="354.39999"
       y="447.2804"
       style="font-size:10.66666698px"
       id="tspan16822"> </tspan><tspan
       sodipodi:role="line"
       x="354.39999"
       y="463.94708"
       style="font-size:10.66666698px"
       id="tspan16824"> </tspan></text>
  <path
     style="fill:none;stroke:#000000;stroke-width:2.48918986;stroke-linecap:butt;stroke-linejoin:miter;stroke-miterlimit:4;stroke-dasharray:none;stroke-opacity:1"
     d="m 391.3534,252.64981 v -31.61272 l 10.5702,6.10273 3.7516,2.16597 -14.42359,3.86479 z"
     id="path7673"
     inkscape:connector-curvature="0" />
  <path
     id="path7587"
     style="fill:none;stroke:#000000;stroke-width:0.89219266;stroke-linecap:butt;stroke-linejoin:miter;stroke-miterlimit:4;stroke-dasharray:none;stroke-opacity:1"
     inkscape:path-effect="#path-effect7589-5"
     inkscape:original-d="m 351.02969,533.09798 h 9.7078 m 0,0 a 4.8538991,4.8582551 0 0 1 -4.8539,4.85824 4.8538991,4.8582551 0 0 1 -4.8539,-4.85824 4.8538991,4.8582551 0 0 1 4.8539,-4.85826 4.8538991,4.8582551 0 0 1 4.8539,4.85826 z"
     d="m 351.02969,533.09798 c 3.23593,0 6.47187,0 9.7078,0 m 0,0 c 0.0934,2.87056 -2.74066,5.15116 -5.5931,4.80226 -2.84506,-0.348 -4.66276,-3.48494 -3.89648,-6.24696 0.76459,-2.75591 4.15053,-4.15488 6.74005,-2.93448 1.65584,0.78037 2.77075,2.5465 2.74953,4.37918 z"
     inkscape:connector-curvature="0" />
  <path
     id="path7587-6"
     style="fill:none;stroke:#000000;stroke-width:0.89219266;stroke-linecap:butt;stroke-linejoin:miter;stroke-miterlimit:4;stroke-dasharray:none;stroke-opacity:1"
     inkscape:path-effect="#path-effect7589-5-3"
     inkscape:original-d="m 235.39571,480.91529 h 9.7078 m 0,0 a 4.8538991,4.8582551 0 0 1 -4.8539,4.85824 4.8538991,4.8582551 0 0 1 -4.8539,-4.85824 4.8538991,4.8582551 0 0 1 4.8539,-4.85826 4.8538991,4.8582551 0 0 1 4.8539,4.85826 z"
     d="m 235.39571,480.91529 c 3.23593,0 6.47187,0 9.7078,0 m 0,0 c 0.0934,2.87056 -2.74066,5.15116 -5.5931,4.80226 -2.84506,-0.348 -4.66276,-3.48494 -3.89648,-6.24696 0.76459,-2.75591 4.15053,-4.15488 6.74005,-2.93448 1.65584,0.78037 2.77075,2.5465 2.74953,4.37918 z"
     inkscape:connector-curvature="0" />
  <path
     id="path7587-5"
     style="fill:none;stroke:#000000;stroke-width:0.89219266;stroke-linecap:butt;stroke-linejoin:miter;stroke-miterlimit:4;stroke-dasharray:none;stroke-opacity:1"
     inkscape:path-effect="#path-effect7589-5-7"
     inkscape:original-d="m 258.29656,407.32729 h 9.7078 m 0,0 a 4.8538991,4.8582551 0 0 1 -4.8539,4.85824 4.8538991,4.8582551 0 0 1 -4.8539,-4.85824 4.8538991,4.8582551 0 0 1 4.8539,-4.85826 4.8538991,4.8582551 0 0 1 4.8539,4.85826 z"
     d="m 258.29656,407.32729 c 3.23593,0 6.47187,0 9.7078,0 m 0,0 c 0.0934,2.87056 -2.74066,5.15116 -5.5931,4.80226 -2.84506,-0.348 -4.66276,-3.48494 -3.89648,-6.24696 0.76459,-2.75591 4.15053,-4.15488 6.74005,-2.93448 1.65584,0.78037 2.77075,2.5465 2.74953,4.37918 z"
     inkscape:connector-curvature="0" />
  <path
     id="path7587-62"
     style="fill:none;stroke:#000000;stroke-width:0.89219266;stroke-linecap:butt;stroke-linejoin:miter;stroke-miterlimit:4;stroke-dasharray:none;stroke-opacity:1"
     inkscape:path-effect="#path-effect7589-5-35"
     inkscape:original-d="m 261.29994,363.40006 h 9.7078 m 0,0 a 4.8538991,4.8582551 0 0 1 -4.8539,4.85824 4.8538991,4.8582551 0 0 1 -4.8539,-4.85824 4.8538991,4.8582551 0 0 1 4.8539,-4.85826 4.8538991,4.8582551 0 0 1 4.8539,4.85826 z"
     d="m 261.29994,363.40006 c 3.23593,0 6.47187,0 9.7078,0 m 0,0 c 0.0934,2.87056 -2.74066,5.15116 -5.5931,4.80226 -2.84506,-0.348 -4.66276,-3.48494 -3.89648,-6.24696 0.76459,-2.75591 4.15053,-4.15488 6.74005,-2.93448 1.65584,0.78037 2.77075,2.5465 2.74953,4.37918 z"
     inkscape:connector-curvature="0" />
  <text
     xml:space="preserve"
     style="font-style:normal;font-weight:normal;font-size:40px;line-height:1.25;font-family:sans-serif;letter-spacing:0px;word-spacing:0px;fill:#000000;fill-opacity:1;stroke:none"
     x="363.41016"
     y="536.98608"
     id="text4694"><tspan
       sodipodi:role="line"
       id="tspan4692"
       x="363.41016"
       y="536.98608"
       style="font-size:10.66666698px">R0</tspan></text>
  <text
     xml:space="preserve"
     style="font-style:normal;font-weight:normal;font-size:10.66666698px;line-height:1.25;font-family:sans-serif;letter-spacing:0px;word-spacing:0px;fill:#000000;fill-opacity:1;stroke:none"
     x="218.12117"
     y="484.80856"
     id="text4698"><tspan
       sodipodi:role="line"
       id="tspan4696"
       x="218.12117"
       y="484.80856">R1</tspan></text>
  <text
     xml:space="preserve"
     style="font-style:normal;font-weight:normal;font-size:10.66666698px;line-height:1.25;font-family:sans-serif;letter-spacing:0px;word-spacing:0px;fill:#000000;fill-opacity:1;stroke:none"
     x="271.43137"
     y="411.29086"
     id="text4702"><tspan
       sodipodi:role="line"
       id="tspan4700"
       x="271.43137"
       y="411.29086">R2</tspan></text>
  <text
     xml:space="preserve"
     style="font-style:normal;font-weight:normal;font-size:10.66666698px;line-height:1.25;font-family:sans-serif;letter-spacing:0px;word-spacing:0px;fill:#000000;fill-opacity:1;stroke:none"
     x="273.26028"
     y="367.28815"
     id="text4706"><tspan
       sodipodi:role="line"
       id="tspan4704"
       x="273.26028"
       y="367.28815">R3</tspan></text>
</svg>
